<?xml version="1.0" encoding="UTF-8"?>
<svg version="1.1" xmlns="http://www.w3.org/2000/svg" width="488" height="84">
<path d="M0 0 C4.98322981 2.10900737 7.01742737 9.79939882 9.2109375 14.5078125 C9.57058594 15.2709375 9.93023437 16.0340625 10.30078125 16.8203125 C11.70963817 19.82798459 13.03417594 22.72752781 14.0859375 25.8828125 C14.38363037 25.16101807 14.68132324 24.43922363 14.98803711 23.69555664 C16.33060112 20.4444072 17.6769662 17.19484556 19.0234375 13.9453125 C19.49201172 12.80900391 19.96058594 11.67269531 20.44335938 10.50195312 C20.89130859 9.42236328 21.33925781 8.34277344 21.80078125 7.23046875 C22.21448975 6.23023682 22.62819824 5.23000488 23.05444336 4.19946289 C24.0859375 1.8828125 24.0859375 1.8828125 25.0859375 0.8828125 C26.91709633 0.78430079 28.75213683 0.75308621 30.5859375 0.7578125 C31.58625 0.75523438 32.5865625 0.75265625 33.6171875 0.75 C36.0859375 0.8828125 36.0859375 0.8828125 37.0859375 1.8828125 C37.17458958 4.7671507 37.20115046 7.62743408 37.18359375 10.51171875 C37.1821788 11.37594955 37.18076385 12.24018036 37.17930603 13.13059998 C37.17368989 15.90220542 37.16113469 18.6737313 37.1484375 21.4453125 C37.14342458 23.3196603 37.13886131 25.19400935 37.13476562 27.06835938 C37.12371522 31.67320794 37.1064398 36.27799671 37.0859375 40.8828125 C33.4559375 40.8828125 29.8259375 40.8828125 26.0859375 40.8828125 C25.7559375 36.2628125 25.4259375 31.6428125 25.0859375 26.8828125 C24.4259375 26.8828125 23.7659375 26.8828125 23.0859375 26.8828125 C23.0034375 27.5221875 22.9209375 28.1615625 22.8359375 28.8203125 C21.79073378 33.08822767 19.94501924 36.91388917 18.0859375 40.8828125 C15.1159375 40.8828125 12.1459375 40.8828125 9.0859375 40.8828125 C8.41288732 39.28131364 7.74771523 37.67650221 7.0859375 36.0703125 C6.7146875 35.17699219 6.3434375 34.28367188 5.9609375 33.36328125 C5.0859375 30.8828125 5.0859375 30.8828125 5.0859375 27.8828125 C4.4259375 27.8828125 3.7659375 27.8828125 3.0859375 27.8828125 C2.4259375 32.1728125 1.7659375 36.4628125 1.0859375 40.8828125 C-2.2140625 40.8828125 -5.5140625 40.8828125 -8.9140625 40.8828125 C-8.93388184 39.93438477 -8.95370117 38.98595703 -8.97412109 38.00878906 C-9.05232011 34.48248886 -9.13901616 30.95660889 -9.23144531 27.43066406 C-9.26967516 25.90600592 -9.3045385 24.38125943 -9.3359375 22.85644531 C-9.38171912 20.66178869 -9.43969016 18.4677371 -9.5 16.2734375 C-9.51155121 15.5941217 -9.52310242 14.91480591 -9.53500366 14.21490479 C-9.64641166 10.6244389 -9.97364626 7.94662762 -11.9140625 4.8828125 C-8.1811793 -0.05422657 -5.81371889 -0.61510336 0 0 Z M25.0859375 21.8828125 C26.0859375 24.8828125 26.0859375 24.8828125 26.0859375 24.8828125 Z " fill="#F9F4F5" transform="translate(145.9140625,23.1171875)"/>
<path d="M0 0 C5.40453536 3.13418751 8.62696635 7.45100549 10.625 13.375 C11.535086 20.45462248 10.91735355 26.54587789 6.625 32.375 C2.10057701 37.35694891 -3.0095389 39.37069416 -9.625 39.8125 C-15.25012589 39.65096767 -19.85400153 37.67304077 -24.375 34.375 C-28.94325898 29.00180751 -30.68442681 23.70086431 -30.59375 16.71875 C-30.06818042 11.08764738 -27.3143328 6.3143328 -23.375 2.375 C-16.43606358 -2.65655105 -7.8549438 -3.52731439 0 0 Z M-17.375 10.375 C-20.35567984 14.84601977 -20.0937464 19.13732676 -19.375 24.375 C-17.66444376 27.75268449 -17.66444376 27.75268449 -14.375 29.375 C-11.21248819 30.05554052 -8.53557773 30.07353348 -5.375 29.375 C-2.37959937 27.37806625 -0.88386958 25.92387179 0.25 22.47265625 C0.92076861 18.83233909 0.70485434 16.61012666 -0.5 13.0625 C-2.58112322 10.07955671 -4.04302127 8.80299089 -7.375 7.375 C-11.60564315 6.74040353 -13.96283337 7.88504057 -17.375 10.375 Z " fill="#F7F3F5" transform="translate(326.375,25.625)"/>
<path d="M0 0 C23.24550898 0 23.24550898 0 28.6328125 4.3046875 C31.3229571 7.6404668 31.84941909 11.80337537 32 16 C30.00992421 20.13323433 27.22237034 22.80482266 24 26 C24.5053125 26.84304687 25.010625 27.68609375 25.53125 28.5546875 C26.1809375 29.65039062 26.830625 30.74609375 27.5 31.875 C28.1496875 32.96554688 28.799375 34.05609375 29.46875 35.1796875 C31 38 31 38 31 40 C27.07730584 40.84366768 23.88240803 41.12452448 20 40 C16.54710348 36.02084553 14.26892989 31.73289673 12 27 C10.71553081 29.56893838 10.67022856 31.76576337 10.4375 34.625 C10.35371094 35.62789062 10.26992188 36.63078125 10.18359375 37.6640625 C10.12300781 38.43492188 10.06242187 39.20578125 10 40 C6.7 40 3.4 40 0 40 C0 26.8 0 13.6 0 0 Z M10 10 C10.1018371 11.91424457 10.1018371 11.91424457 10.4375 14.0625 C10.623125 15.361875 10.80875 16.66125 11 18 C12.918125 18.0928125 12.918125 18.0928125 14.875 18.1875 C15.59429687 18.22230469 16.31359375 18.25710937 17.0546875 18.29296875 C17.69664062 18.19628906 18.33859375 18.09960938 19 18 C21.30075262 15.23254916 21.30075262 15.23254916 20.75 12.375 C20.5025 11.59125 20.255 10.8075 20 10 C17.30891695 8.65445847 12.3130459 7.6869541 10 10 Z " fill="#F8F3F4" transform="translate(261,24)"/>
<path d="M0 0 C3.3 0 6.6 0 10 0 C11.87824891 1.87824891 11.39102397 5.03935276 11.5625 7.5625 C11.64628906 8.76003906 11.73007813 9.95757812 11.81640625 11.19140625 C11.87699219 12.11824219 11.93757812 13.04507813 12 14 C12.65484375 12.989375 13.3096875 11.97875 13.984375 10.9375 C21.16336206 0.50185974 21.16336206 0.50185974 26.40234375 -0.9296875 C29.38222195 -0.88008192 32.09205327 -0.63944378 35 0 C33.72180472 2.73675397 32.33095222 4.99486517 30.3984375 7.3125 C29.90859375 7.91320312 29.41875 8.51390625 28.9140625 9.1328125 C27.8848531 10.38144725 26.85095615 11.6262324 25.8125 12.8671875 C25.32523438 13.46789063 24.83796875 14.06859375 24.3359375 14.6875 C23.88782715 15.22761719 23.4397168 15.76773438 22.97802734 16.32421875 C21.66396082 18.25239554 21.66396082 18.25239554 22 22 C22.95020481 23.73302573 22.95020481 23.73302573 24.3359375 25.3125 C25.06683594 26.21355469 25.06683594 26.21355469 25.8125 27.1328125 C26.328125 27.74898437 26.84375 28.36515625 27.375 29 C28.38600153 30.226545 29.39391743 31.45564118 30.3984375 32.6875 C31.07398682 33.49767578 31.07398682 33.49767578 31.76318359 34.32421875 C33.095824 36.12983339 34.05186635 37.96994359 35 40 C30.46290006 40.75735208 26.50777227 41.02472315 22 40 C18.1609875 36.42574698 15.67244406 32.52110075 13 28 C12.67 27.67 12.34 27.34 12 27 C11.67 31.29 11.34 35.58 11 40 C7.37 40 3.74 40 0 40 C0 26.8 0 13.6 0 0 Z " fill="#F9F5F6" transform="translate(205,24)"/>
<path d="M0 0 C3.3 0 6.6 0 10 0 C10 13.2 10 26.4 10 40 C6.37 40 2.74 40 -1 40 C-1.02464775 34.46411467 -1.04283496 28.928261 -1.05493164 23.39233398 C-1.05997244 21.5075627 -1.06680498 19.62279535 -1.07543945 17.73803711 C-1.08751617 15.03498364 -1.09323068 12.33198169 -1.09765625 9.62890625 C-1.10281754 8.78099014 -1.10797882 7.93307404 -1.11329651 7.0594635 C-1.11349195 5.03928932 -1.06206211 3.01922066 -1 1 C-0.67 0.67 -0.34 0.34 0 0 Z " fill="#FAF5F7" transform="translate(189,24)"/>
<path d="M0 0 C0.8146875 0.00257812 1.629375 0.00515625 2.46875 0.0078125 C3.2834375 0.00523438 4.098125 0.00265625 4.9375 0 C6.96875 0.1328125 6.96875 0.1328125 7.96875 1.1328125 C8.05740208 4.0171507 8.08396296 6.87743408 8.06640625 9.76171875 C8.0649913 10.62594955 8.06357635 11.49018036 8.06211853 12.38059998 C8.05650239 15.15220542 8.04394719 17.9237313 8.03125 20.6953125 C8.02623708 22.5696603 8.02167381 24.44400935 8.01757812 26.31835938 C8.00652772 30.92320794 7.9892523 35.52799671 7.96875 40.1328125 C4.33875 40.1328125 0.70875 40.1328125 -3.03125 40.1328125 C-3.05589775 34.59692717 -3.07408496 29.0610735 -3.08618164 23.52514648 C-3.09122244 21.6403752 -3.09805498 19.75560785 -3.10668945 17.87084961 C-3.11876617 15.16779614 -3.12448068 12.46479419 -3.12890625 9.76171875 C-3.13406754 8.91380264 -3.13922882 8.06588654 -3.14454651 7.192276 C-3.14474195 5.17210182 -3.09331211 3.15203316 -3.03125 1.1328125 C-2.03125 0.1328125 -2.03125 0.1328125 0 0 Z " fill="#F9F5F6" transform="translate(247.03125,23.8671875)"/>
<path d="M0 0 C0.88751953 0.19529297 0.88751953 0.19529297 1.79296875 0.39453125 C2.12296875 2.04453125 2.45296875 3.69453125 2.79296875 5.39453125 C0.31796875 4.40453125 0.31796875 4.40453125 -2.20703125 3.39453125 C-2.94953125 4.21953125 -3.69203125 5.04453125 -4.45703125 5.89453125 C-7.20703125 8.39453125 -7.20703125 8.39453125 -11.20703125 8.39453125 C-12.01953125 6.70703125 -12.01953125 6.70703125 -12.20703125 4.39453125 C-8.65393977 -0.93510597 -5.83687021 -1.01883379 0 0 Z " fill="#D7CDC9" transform="translate(146.20703125,23.60546875)"/>
<path d="M0 0 C2.8203125 -0.29296875 2.8203125 -0.29296875 6.125 -0.1875 C7.76855469 -0.14689453 7.76855469 -0.14689453 9.4453125 -0.10546875 C10.28835937 -0.07066406 11.13140625 -0.03585938 12 0 C10.27845212 3.76488042 8.00765886 6.15063897 5 9 C5 7.02 5 5.04 5 3 C4.1646875 3.433125 4.1646875 3.433125 3.3125 3.875 C0.91505355 5.0413253 -1.51596939 6.0339881 -4 7 C-2.79618552 4.50638429 -1.54571278 2.31856917 0 0 Z " fill="#FEF7F8" transform="translate(228,24)"/>
<path d="M0 0 C0.99 0 1.98 0 3 0 C3 1.32 3 2.64 3 4 C2.34 4 1.68 4 1 4 C1.185625 5.299375 1.37125 6.59875 1.5625 7.9375 C2.11884037 12.80547826 1.69149428 17.15954005 1 22 C-0.32 21.67 -1.64 21.34 -3 21 C-2.01 19.515 -2.01 19.515 -1 18 C-0.88282986 15.46226616 -0.85796038 13.0308061 -0.9375 10.5 C-1.12102122 3.36306366 -1.12102122 3.36306366 0 0 Z " fill="#FDFAFB" transform="translate(146,42)"/>
<path d="M0 0 C0.66 0.33 1.32 0.66 2 1 C3.19910491 5.36816789 3.39273516 7.28224264 1.1875 11.3125 C-1 14 -1 14 -3 16 C-5.125 15.625 -5.125 15.625 -7 15 C-3.25 12 -3.25 12 -1 12 C-1 10.68 -1 9.36 -1 8 C-0.34 8 0.32 8 1 8 C0.7525 6.576875 0.7525 6.576875 0.5 5.125 C0 2 0 2 0 0 Z " fill="#FEF8FB" transform="translate(290,32)"/>
<path d="M0 0 C0.99 0 1.98 0 3 0 C3 0.99 3 1.98 3 3 C3.99 3.33 4.98 3.66 6 4 C6.73046875 6.06640625 6.73046875 6.06640625 7.1875 8.5625 C7.34605469 9.38878906 7.50460937 10.21507812 7.66796875 11.06640625 C7.77753906 11.70449219 7.88710938 12.34257813 8 13 C5.68757908 10.83676753 3.9843604 8.62352196 2.3125 5.9375 C1.87550781 5.24527344 1.43851562 4.55304687 0.98828125 3.83984375 C0 2 0 2 0 0 Z " fill="#FEF9FB" transform="translate(272,48)"/>
<path d="M0 0 C1.5625 1.5 1.5625 1.5 3 4 C2.96823234 6.77437543 2.50364148 9.25286467 2 12 C-0.60018816 8.09971775 -0.15085514 4.52565431 0 0 Z " fill="#FEEAEA" transform="translate(171,48)"/>
<path d="M0 0 C0.66 0.33 1.32 0.66 2 1 C2.625 3.5625 2.625 3.5625 3 6 C2.01 5.34 1.02 4.68 0 4 C-0.99 4.495 -0.99 4.495 -2 5 C-2.33 4.01 -2.66 3.02 -3 2 C-2.01 1.34 -1.02 0.68 0 0 Z " fill="#FBEBEB" transform="translate(156,42)"/>
</svg>
