<?xml version="1.0" encoding="UTF-8"?>
<svg version="1.1" xmlns="http://www.w3.org/2000/svg" width="500" height="500">
<path d="M0 0 C1.12564362 -0.0066568 2.25128723 -0.0133136 3.41104126 -0.02017212 C5.77905668 -0.03022282 8.14709999 -0.03499152 10.51513672 -0.03466797 C14.05876887 -0.03901006 17.60112095 -0.07532846 21.14453125 -0.11328125 C36.07406699 -0.18670424 50.14007248 1.15757964 64.7265625 4.3359375 C66.06752487 4.62744186 66.06752487 4.62744186 67.43557739 4.92483521 C109.95789392 14.30546695 148.97933491 35.60556271 180.22070312 65.87695312 C181.22999578 66.85482811 182.24439879 67.82745428 183.26367188 68.79492188 C210.46822232 94.62028092 230.64862996 128.65566535 242.04492188 164.22021484 C242.63918482 166.0647287 243.26605701 167.89867326 243.8984375 169.73046875 C247.21991504 179.68212646 248.99258988 190.00978234 250.7265625 200.3359375 C250.90751465 201.31216064 251.0884668 202.28838379 251.27490234 203.29418945 C253.19200859 214.69985599 253.12355487 226.11121605 253.1015625 237.6484375 C253.10074677 239.25173416 253.10074677 239.25173416 253.09991455 240.88742065 C253.06277691 256.74088334 252.44149523 271.85987832 248.7265625 287.3359375 C248.51225586 288.28500977 248.29794922 289.23408203 248.07714844 290.21191406 C240.56314168 323.18823192 226.98295799 353.28139905 206.7265625 380.3359375 C205.85451172 381.5115625 205.85451172 381.5115625 204.96484375 382.7109375 C193.22128983 398.17944436 180.10920416 412.43578263 164.7265625 424.3359375 C164.1495459 424.78936523 163.5725293 425.24279297 162.97802734 425.70996094 C148.49419341 437.06492266 133.17364332 446.53581608 116.55883789 454.44677734 C115.30701775 455.05425622 114.06419833 455.68054762 112.82983398 456.32275391 C107.70935467 458.98159933 102.49693142 460.97843191 97.0390625 462.8359375 C95.71914307 463.28984863 95.71914307 463.28984863 94.37255859 463.75292969 C83.84358323 467.35195296 73.45496434 470.54685638 62.52734375 472.72265625 C59.78991787 473.20194937 59.78991787 473.20194937 57.7265625 474.3359375 C56.18961543 474.54162558 54.64641831 474.70201811 53.1015625 474.8359375 C50.15964788 475.09579116 47.26467665 475.40514374 44.34228516 475.84301758 C38.56784947 476.56593918 32.78802119 476.49832414 26.9765625 476.50390625 C25.15753418 476.50889885 25.15753418 476.50889885 23.30175781 476.51399231 C20.74674863 476.5190378 18.19173291 476.52140137 15.63671875 476.52124023 C11.73947282 476.52343025 7.84250857 476.54162129 3.9453125 476.56054688 C1.45573013 476.56348063 -1.03385358 476.56546554 -3.5234375 476.56640625 C-4.68198242 476.57359177 -5.84052734 476.58077728 -7.03417969 476.58818054 C-13.17030139 476.57093568 -18.39490068 476.09174753 -24.2734375 474.3359375 C-25.95030005 473.97490154 -27.62974518 473.62546112 -29.3125 473.29296875 C-60.63827034 466.92000776 -88.85185167 455.74912822 -115.9609375 438.8359375 C-116.79351074 438.31942627 -117.62608398 437.80291504 -118.48388672 437.27075195 C-119.24330566 436.78695068 -120.00272461 436.30314941 -120.78515625 435.8046875 C-121.46022217 435.37607422 -122.13528809 434.94746094 -122.83081055 434.50585938 C-123.30687744 434.11978516 -123.78294434 433.73371094 -124.2734375 433.3359375 C-124.2734375 432.6759375 -124.2734375 432.0159375 -124.2734375 431.3359375 C-124.9953125 431.08585937 -125.7171875 430.83578125 -126.4609375 430.578125 C-136.53883375 426.12705415 -145.32133257 415.88771893 -153.2734375 408.3359375 C-154.22476563 407.43875 -155.17609375 406.5415625 -156.15625 405.6171875 C-163.28363651 398.71316638 -169.35153505 391.26604229 -175.2734375 383.3359375 C-175.68948242 382.78599121 -176.10552734 382.23604492 -176.53417969 381.66943359 C-192.92252286 359.92011377 -204.94590057 336.21059361 -213.2734375 310.3359375 C-213.51046387 309.61728516 -213.74749023 308.89863281 -213.99169922 308.15820312 C-217.93790859 296.11395525 -220.30037752 283.84398565 -222.2734375 271.3359375 C-222.53821899 269.79885132 -222.53821899 269.79885132 -222.80834961 268.23071289 C-223.41099065 263.18402916 -223.47515482 258.19969212 -223.51171875 253.12109375 C-223.5197905 252.03372421 -223.52786224 250.94635468 -223.53617859 249.82603455 C-223.54998139 247.52051362 -223.56072047 245.21497259 -223.56860352 242.90942383 C-223.58000955 240.59913961 -223.60027533 238.28887928 -223.63012695 235.97875977 C-224.42130859 174.58925293 -199.60284413 116.43823162 -157.2734375 72.3359375 C-156.47099609 71.49264893 -156.47099609 71.49264893 -155.65234375 70.63232422 C-147.42791905 62.03039272 -138.84018702 54.40677935 -129.2734375 47.3359375 C-128.71188965 46.9136084 -128.1503418 46.4912793 -127.57177734 46.05615234 C-91.62950967 19.07094243 -45.35452064 0.09688046 0 0 Z " fill="#1F072C" transform="translate(235.2734375,11.6640625)"/>
<path d="M0 0 C9.71407335 -0.0895765 19.42178645 -0.15790737 29.125 0.375 C30.40632813 0.44460937 31.68765625 0.51421875 33.0078125 0.5859375 C36 1 36 1 38 3 C38.24723816 5.71247864 38.24723816 5.71247864 38.24291992 9.20629883 C38.24599655 10.51137894 38.24907318 11.81645905 38.25224304 13.16108704 C38.24534293 14.59307021 38.23807579 16.02505166 38.23046875 17.45703125 C38.22927662 18.92193054 38.22882386 20.3868306 38.2290802 21.85173035 C38.22751435 24.92602304 38.21921976 28.00019946 38.20581055 31.07446289 C38.18886546 35.00866504 38.18499494 38.94273879 38.18575573 42.87697315 C38.18548322 45.90448729 38.17998822 48.93197354 38.17275429 51.95947838 C38.16957856 53.40949988 38.16760278 54.85952454 38.16686058 56.30954933 C38.16468286 58.34155033 38.15512549 60.37353934 38.14526367 62.40551758 C38.14145187 63.56086502 38.13764008 64.71621246 38.13371277 65.90657043 C38.01202259 68.72185884 37.64369541 71.26241884 37 74 C33.80861182 75.06379606 31.53474114 75.12686526 28.18115234 75.12939453 C26.38053848 75.13412277 26.38053848 75.13412277 24.54354858 75.13894653 C23.23753693 75.1369223 21.93152527 75.13489807 20.5859375 75.1328125 C19.21521996 75.13348769 17.84450254 75.1344595 16.4737854 75.13571167 C13.58358636 75.13718942 10.69341812 75.13503888 7.80322266 75.13037109 C4.17826143 75.12478994 0.55337555 75.12796601 -3.07158279 75.13382339 C-17.06397967 75.1528647 -31.01346754 75.02785633 -44.99307346 74.35909462 C-53.92594742 73.97053808 -62.84521936 73.93547705 -71.78393555 73.95556641 C-73.44479643 73.95755825 -75.10565746 73.9594341 -76.76651859 73.96120453 C-97.15436277 73.98896216 -117.54202095 74.0974378 -137.92958331 74.20192909 C-143.6310348 74.23084611 -149.33249293 74.25838646 -155.03395081 74.28601074 C-173.11515691 74.37384324 -191.19635433 74.46339946 -209.27754366 74.55461788 C-224.64205109 74.6321125 -240.00656557 74.70797924 -255.37109375 74.78125 C-256.51658676 74.78672726 -257.66207976 74.79220451 -258.84228468 74.79784775 C-282.78559069 74.91180296 -306.72876237 75.01578215 -330.67236328 75.03125 C-331.87597712 75.03202797 -331.87597712 75.03202797 -333.10390639 75.03282166 C-348.4026228 75.0408736 -363.70128569 75.01668571 -379 75 C-379 50.91 -379 26.82 -379 2 C-374.88896257 1.17779251 -371.67785119 0.88011361 -367.54386425 0.89256954 C-366.23111906 0.89406189 -364.91837387 0.89555424 -363.56584853 0.89709181 C-362.11064562 0.90387377 -360.65544315 0.91074966 -359.20024109 0.91770935 C-357.65325145 0.92140381 -356.10626069 0.92465291 -354.55926925 0.92749459 C-350.30635552 0.93659774 -346.05348453 0.95202829 -341.80059373 0.96847737 C-337.21509983 0.98510947 -332.62959179 0.99589438 -328.04408264 1.00738525 C-320.09873424 1.02809784 -312.1534042 1.05252465 -304.20807457 1.07946587 C-292.72042565 1.1184131 -281.23276586 1.15177168 -269.74509571 1.18376113 C-251.10763879 1.23581242 -232.47019846 1.29239082 -213.83276367 1.35180664 C-195.72697597 1.4095179 -177.62118381 1.465103 -159.51538086 1.51782227 C-158.39955813 1.52107198 -157.2837354 1.5243217 -156.13409986 1.5276699 C-150.53641049 1.54395946 -144.93872099 1.56020715 -139.34103143 1.57643402 C-92.89400049 1.71113124 -46.44699407 1.85317149 0 2 C0 1.34 0 0.68 0 0 Z " fill="#631B29" transform="translate(427,212)"/>
<path d="M0 0 C4.09936808 2.39445529 6.44864711 4.71710618 8.55078125 9.046875 C9.41988008 15.37766351 9.42769217 21.74843008 5.55078125 27.046875 C0.30064189 32.17101101 -3.32170883 33.47203567 -10.5546875 33.38671875 C-15.81111798 32.76956699 -19.33982673 30.40126722 -22.828125 26.5078125 C-26.05548716 21.76235316 -26.45064835 16.61134037 -25.44921875 11.046875 C-21.08712005 0.22515779 -11.08316621 -4.31306627 0 0 Z " fill="#F1E8EB" transform="translate(326.44921875,232.953125)"/>
<path d="M0 0 C3.3 0 6.6 0 10 0 C10.56589844 1.43214844 11.13179687 2.86429688 11.71484375 4.33984375 C12.45559351 6.20578303 13.19648631 8.07166552 13.9375 9.9375 C14.31068359 10.88302734 14.68386719 11.82855469 15.06835938 12.80273438 C15.42607422 13.70185547 15.78378906 14.60097656 16.15234375 15.52734375 C16.48226318 16.35999756 16.81218262 17.19265137 17.15209961 18.05053711 C17.84347269 19.96560634 17.84347269 19.96560634 19 21 C19.23710693 20.39937744 19.47421387 19.79875488 19.71850586 19.17993164 C20.78882572 16.4730531 21.86310775 13.76776459 22.9375 11.0625 C23.49727539 9.64420898 23.49727539 9.64420898 24.06835938 8.19726562 C24.42607422 7.29814453 24.78378906 6.39902344 25.15234375 5.47265625 C25.48226318 4.64000244 25.81218262 3.80734863 26.15209961 2.94946289 C27 1 27 1 28 0 C31.3 0 34.6 0 38 0 C38 11.22 38 22.44 38 34 C35.03 34 32.06 34 29 34 C28.67 29.05 28.34 24.1 28 19 C26.02 23.95 24.04 28.9 22 34 C19.69 34 17.38 34 15 34 C13.02 28.39 11.04 22.78 9 17 C8.67 22.61 8.34 28.22 8 34 C5.36 34 2.72 34 0 34 C0 22.78 0 11.56 0 0 Z " fill="#F1E5E7" transform="translate(166,232)"/>
<path d="M0 0 C2.84625 -0.0825 5.6925 -0.165 8.625 -0.25 C9.51010254 -0.28641602 10.39520508 -0.32283203 11.30712891 -0.36035156 C16.6946415 -0.4355318 19.75911288 0.3724104 24 4 C26.48386059 7.72579089 26.3804212 9.58711402 26 14 C24.75 16.875 24.75 16.875 23 19 C20.890625 19.6328125 20.890625 19.6328125 19 20 C19.5053125 20.84304687 20.010625 21.68609375 20.53125 22.5546875 C21.1809375 23.65039062 21.830625 24.74609375 22.5 25.875 C23.1496875 26.96554687 23.799375 28.05609375 24.46875 29.1796875 C26 32 26 32 26 34 C23.03 34 20.06 34 17 34 C15.99491199 32.21118264 14.99607264 30.41885304 14 28.625 C13.1646875 27.12839844 13.1646875 27.12839844 12.3125 25.6015625 C11 23 11 23 11 21 C10.01 21 9.02 21 8 21 C8 25.29 8 29.58 8 34 C5.36 34 2.72 34 0 34 C0 22.78 0 11.56 0 0 Z " fill="#F3E7E9" transform="translate(271,232)"/>
<path d="M0 0 C9.71407335 -0.0895765 19.42178645 -0.15790737 29.125 0.375 C30.40632812 0.44460937 31.68765625 0.51421875 33.0078125 0.5859375 C36 1 36 1 38 3 C38.24723816 5.71247864 38.24723816 5.71247864 38.24291992 9.20629883 C38.24599655 10.51137894 38.24907318 11.81645905 38.25224304 13.16108704 C38.24534293 14.59307021 38.23807579 16.02505166 38.23046875 17.45703125 C38.22927662 18.92193054 38.22882386 20.3868306 38.2290802 21.85173035 C38.22751435 24.92602304 38.21921976 28.00019946 38.20581055 31.07446289 C38.18886546 35.00866504 38.18499494 38.94273879 38.18575573 42.87697315 C38.18548322 45.90448729 38.17998822 48.93197354 38.17275429 51.95947838 C38.16957856 53.40949988 38.16760278 54.85952454 38.16686058 56.30954933 C38.16468286 58.34155033 38.15512549 60.37353934 38.14526367 62.40551758 C38.14145187 63.56086502 38.13764008 64.71621246 38.13371277 65.90657043 C38.01202259 68.72185884 37.64369541 71.26241884 37 74 C33.29015074 75.23661642 29.83701708 75.1623061 25.97265625 75.16796875 C25.18733017 75.17129715 24.40200409 75.17462555 23.59288025 75.17805481 C21.93277573 75.18311463 20.27266105 75.18546343 18.61254883 75.18530273 C16.07551287 75.18748879 13.53891213 75.20565296 11.00195312 75.22460938 C9.38802232 75.22754359 7.77408945 75.2295282 6.16015625 75.23046875 C5.4027565 75.23765427 4.64535675 75.24483978 3.86500549 75.25224304 C0.08989557 75.23590196 -2.79843562 75.11776428 -6 73 C3.0693672 71.93095964 12.0738133 71.88169117 21.1875 71.9375 C22.63085781 71.94252912 24.07421733 71.94708951 25.51757812 71.95117188 C29.01175505 71.9620562 32.50586612 71.9792415 36 72 C35.96447021 70.79279297 35.92894043 69.58558594 35.89233398 68.34179688 C34.65269608 25.37736753 34.65269608 25.37736753 36 4 C34.60245735 4.04445755 34.60245735 4.04445755 33.17668152 4.08981323 C7.25993315 4.89827759 -18.6366384 5.15973313 -44.56518555 5.13037109 C-49.69529906 5.12463237 -54.82536112 5.12808542 -59.95547295 5.13382339 C-81.65781813 5.15426568 -103.31922062 5.06094018 -125 4 C-121.72268641 1.81512427 -120.80201564 1.75169164 -117.00764465 1.75949097 C-115.46166847 1.75536697 -115.46166847 1.75536697 -113.88446045 1.75115967 C-112.75445618 1.75835022 -111.6244519 1.76554077 -110.46020508 1.77294922 C-108.67464455 1.77251114 -108.67464455 1.77251114 -106.85301208 1.77206421 C-103.58876264 1.77321957 -100.32468422 1.78325654 -97.06046891 1.79721212 C-93.64918144 1.8097067 -90.23789068 1.81088898 -86.82658386 1.81326294 C-80.36677887 1.81948146 -73.90704149 1.83589728 -67.44726628 1.85596192 C-60.09305353 1.87830937 -52.73883757 1.88931144 -45.38459933 1.89935279 C-30.25636186 1.9202632 -15.12818769 1.95544639 0 2 C0 1.34 0 0.68 0 0 Z " fill="#3E3547" transform="translate(427,212)"/>
<path d="M0 0 C2.64 0 5.28 0 8 0 C8.33 4.29 8.66 8.58 9 13 C9.63808594 12.14535156 10.27617187 11.29070312 10.93359375 10.41015625 C11.76818707 9.29423934 12.60282478 8.17835564 13.4375 7.0625 C13.85837891 6.49853516 14.27925781 5.93457031 14.71289062 5.35351562 C17.88671875 1.11328125 17.88671875 1.11328125 19 0 C20.51928038 -0.07179964 22.04167482 -0.08392007 23.5625 -0.0625 C24.38878906 -0.05347656 25.21507812 -0.04445312 26.06640625 -0.03515625 C26.70449219 -0.02355469 27.34257812 -0.01195312 28 0 C26.32076975 3.80133442 23.88537166 6.97082702 21.375 10.25 C20.95476562 10.80429688 20.53453125 11.35859375 20.1015625 11.9296875 C19.07061281 13.28866663 18.03570089 14.64463835 17 16 C18.72841066 20.02302481 21.43130881 23.28077291 24.125 26.6875 C29 32.87190083 29 32.87190083 29 34 C25.38715578 34.8993676 22.58984086 35.07210112 19 34 C14.88393593 30.39084718 11.9467566 25.56433788 9 21 C8.67 25.29 8.34 29.58 8 34 C5.36 34 2.72 34 0 34 C0 22.78 0 11.56 0 0 Z " fill="#F4EAEC" transform="translate(224,232)"/>
<path d="M0 0 C2.28140337 0.00474304 4.25735822 0.06985822 5.94140625 1.75390625 C6.02907737 3.82652701 6.04836498 5.90210919 6.0390625 7.9765625 C6.03583984 9.23662109 6.03261719 10.49667969 6.02929688 11.79492188 C6.02094028 13.13541734 6.01247532 14.47591213 6.00390625 15.81640625 C5.99889285 17.16080567 5.99432967 18.50520685 5.99023438 19.84960938 C5.97840113 23.15108566 5.96191596 26.45247428 5.94140625 29.75390625 C9.24140625 29.75390625 12.54140625 29.75390625 15.94140625 29.75390625 C15.94140625 20.18390625 15.94140625 10.61390625 15.94140625 0.75390625 C17.26140625 0.75390625 18.58140625 0.75390625 19.94140625 0.75390625 C19.94140625 10.32390625 19.94140625 19.89390625 19.94140625 29.75390625 C23.24140625 29.75390625 26.54140625 29.75390625 29.94140625 29.75390625 C29.94140625 25.79390625 29.94140625 21.83390625 29.94140625 17.75390625 C30.27140625 17.75390625 30.60140625 17.75390625 30.94140625 17.75390625 C30.94140625 20.72390625 30.94140625 23.69390625 30.94140625 26.75390625 C31.60140625 27.08390625 32.26140625 27.41390625 32.94140625 27.75390625 C32.28140625 28.74390625 31.62140625 29.73390625 30.94140625 30.75390625 C27.68359375 31.046875 27.68359375 31.046875 23.81640625 30.94140625 C21.89441406 30.90080078 21.89441406 30.90080078 19.93359375 30.859375 C18.94617188 30.82457031 17.95875 30.78976562 16.94140625 30.75390625 C16.94140625 31.74390625 16.94140625 32.73390625 16.94140625 33.75390625 C16.38453125 33.60953125 15.82765625 33.46515625 15.25390625 33.31640625 C13.65765282 32.92812839 12.05230206 32.57608541 10.44140625 32.25390625 C8.25330606 31.81628621 6.10086435 31.31376576 3.94140625 30.75390625 C3.57015625 31.71296875 3.57015625 31.71296875 3.19140625 32.69140625 C1.94140625 34.75390625 1.94140625 34.75390625 -0.18359375 35.50390625 C-0.80234375 35.58640625 -1.42109375 35.66890625 -2.05859375 35.75390625 C-2.30609375 34.94953125 -2.55359375 34.14515625 -2.80859375 33.31640625 C-3.22109375 32.47078125 -3.63359375 31.62515625 -4.05859375 30.75390625 C-5.37859375 30.42390625 -6.69859375 30.09390625 -8.05859375 29.75390625 C-4.75859375 29.42390625 -1.45859375 29.09390625 1.94140625 28.75390625 C1.15894531 27.77808594 0.37648437 26.80226563 -0.4296875 25.796875 C-1.45204409 24.51189469 -2.47416739 23.22672874 -3.49609375 21.94140625 C-4.27049805 20.97750977 -4.27049805 20.97750977 -5.06054688 19.99414062 C-5.55361328 19.37216797 -6.04667969 18.75019531 -6.5546875 18.109375 C-7.23809204 17.25315552 -7.23809204 17.25315552 -7.93530273 16.37963867 C-9.05859375 14.75390625 -9.05859375 14.75390625 -10.05859375 11.75390625 C-7.79134177 7.40204204 -4.79702858 1.75678656 0 0 Z " fill="#5A1924" transform="translate(250.05859375,236.24609375)"/>
<path d="M0 0 C0.99 0.495 0.99 0.495 2 1 C3.41256179 1.0795965 4.82893172 1.09530878 6.24365234 1.08007812 C7.16844391 1.07423706 8.09323547 1.068396 9.04605103 1.06237793 C10.61266983 1.0469696 10.61266983 1.0469696 12.2109375 1.03125 C24.88481065 0.96990007 37.55352459 1.07364446 50.2265625 1.21875 C51.21045708 1.22982788 52.19435165 1.24090576 53.20806122 1.25231934 C59.30734728 1.32105679 65.40660668 1.39193215 71.50585938 1.46356201 C76.76300836 1.52497634 82.02017687 1.58467215 87.27734375 1.64453125 C97.51824848 1.76138006 107.7591309 1.88007153 118 2 C118.33 2.99 118.66 3.98 119 5 C94.50721774 5.18670468 94.50721774 5.18670468 83.26878738 4.64740562 C72.16421552 4.11617431 61.0885552 3.9270634 49.97363281 3.95068359 C48.30970389 3.95251746 46.6457749 3.95428762 44.98184586 3.95599937 C27.71083694 3.98041572 10.44032572 4.09935915 -6.83019042 4.2249459 C-13.96455321 4.27677171 -21.0989339 4.32482868 -28.2333374 4.37069702 C-29.80869715 4.38083877 -29.80869715 4.38083877 -31.41588235 4.3911854 C-34.63402551 4.41186709 -37.85216898 4.43249902 -41.0703125 4.453125 C-54.25167249 4.53767503 -67.43299408 4.62510831 -80.61425781 4.72363281 C-90.3358314 4.7962692 -100.05742347 4.86188099 -109.77910018 4.91914403 C-114.89718468 4.9495635 -120.0151881 4.98359454 -125.13318634 5.02626419 C-129.91058646 5.06603513 -134.68795345 5.09657227 -139.46546173 5.11981392 C-141.21914034 5.13002116 -142.97280253 5.14370167 -144.72642517 5.16103554 C-147.11033524 5.18409982 -149.49398882 5.19492161 -151.87799072 5.20254517 C-152.57774277 5.2122618 -153.27749482 5.22197843 -153.99845147 5.2319895 C-158.77175673 5.22824327 -158.77175673 5.22824327 -161 3 C-144.29019875 2.86823283 -127.58038771 2.73779277 -110.87056446 2.60884857 C-103.10844761 2.54892134 -95.3463343 2.48859167 -87.58422852 2.42724609 C-80.80313095 2.37365473 -74.0220275 2.32088812 -67.24091643 2.26903296 C-63.66461732 2.24165827 -60.08832197 2.21392456 -56.51203346 2.18519592 C-37.67412607 2.03419762 -18.8384513 1.96970961 0 2 C0 1.34 0 0.68 0 0 Z " fill="#441A30" transform="translate(305,282)"/>
<path d="M0 0 C0.99 0 1.98 0 3 0 C3.33 10.56 3.66 21.12 4 32 C7.3 32 10.6 32 14 32 C14 23.42 14 14.84 14 6 C15.32 5.34 16.64 4.68 18 4 C18 13.24 18 22.48 18 32 C20.97 32 23.94 32 27 32 C27 32.33 27 32.66 27 33 C24.36 33 21.72 33 19 33 C18.87625 33.639375 18.7525 34.27875 18.625 34.9375 C18.315625 35.9584375 18.315625 35.9584375 18 37 C17.01 37.495 17.01 37.495 16 38 C15.34 37.34 14.68 36.68 14 36 C14.33 35.01 14.66 34.02 15 33 C12.03 33.495 12.03 33.495 9 34 C9.66 34.66 10.32 35.32 11 36 C8.525 36.495 8.525 36.495 6 37 C5.67 35.68 5.34 34.36 5 33 C2.13275314 33.57344937 1.1385485 33.8614515 -1 36 C-1.495 34.515 -1.495 34.515 -2 33 C-3.093125 33.226875 -4.18625 33.45375 -5.3125 33.6875 C-9 34 -9 34 -10.9375 32.5625 C-11.4634375 31.7890625 -11.4634375 31.7890625 -12 31 C-11.01 29.515 -11.01 29.515 -10 28 C-10 29.32 -10 30.64 -10 32 C-6.7 32 -3.4 32 0 32 C0 21.44 0 10.88 0 0 Z " fill="#621722" transform="translate(205,234)"/>
<path d="M0 0 C1.42357063 -0.00629173 1.42357063 -0.00629173 2.87590027 -0.01271057 C3.91658157 -0.00709106 4.95726288 -0.00147156 6.02947998 0.00431824 C7.67718132 0.00147072 7.67718132 0.00147072 9.35816956 -0.00143433 C13.01788324 -0.00515848 16.67740081 0.00560913 20.33709717 0.01676941 C22.90738909 0.01796342 25.47768145 0.0184139 28.04797363 0.01815796 C33.468759 0.0197271 38.88947455 0.02778472 44.3102417 0.04142761 C49.79495347 0.05518581 55.27961398 0.0624581 60.76434326 0.06193542 C91.65068231 0.05923528 122.5134066 0.19269976 153.38397217 1.24723816 C153.38397217 1.57723816 153.38397217 1.90723816 153.38397217 2.24723816 C126.52570242 3.10163274 99.69005667 3.40803885 72.81878662 3.37760925 C67.6886731 3.37187053 62.55861105 3.37532358 57.42849922 3.38106155 C35.72615404 3.40150384 14.06475154 3.30817834 -7.61602783 2.24723816 C-4.42743045 0.12150657 -3.65200204 -0.00241406 0 0 Z " fill="#3E1E3E" transform="translate(309.61602783203125,213.7527618408203)"/>
<path d="M0 0 C2.64 0 5.28 0 8 0 C8 11.22 8 22.44 8 34 C5.36 34 2.72 34 0 34 C0 22.78 0 11.56 0 0 Z " fill="#F6E9EB" transform="translate(257,232)"/>
<path d="M0 0 C2.64 0 5.28 0 8 0 C8 11.22 8 22.44 8 34 C5.36 34 2.72 34 0 34 C0 22.78 0 11.56 0 0 Z " fill="#F3E7E9" transform="translate(210,232)"/>
<path d="M0 0 C2.8125 1.4375 2.8125 1.4375 5 4 C6.33652335 8.39494794 6.55058594 11.79872159 4.625 16 C2.20845666 18.97420719 2.20845666 18.97420719 0.07421875 19.23828125 C-3.64068507 19.35380199 -6.24343928 19.40595941 -9.5625 17.625 C-11.82395241 13.49539125 -11.85255699 9.58898065 -11 5 C-7.92883052 0.48357429 -5.43434422 -1.01893954 0 0 Z " fill="#521E30" transform="translate(321,239)"/>
<path d="M0 0 C1.93166016 0.01740234 1.93166016 0.01740234 3.90234375 0.03515625 C5.19269531 0.04417969 6.48304687 0.05320313 7.8125 0.0625 C8.81152344 0.07410156 9.81054688 0.08570313 10.83984375 0.09765625 C10.83984375 0.42765625 10.83984375 0.75765625 10.83984375 1.09765625 C9.98519531 1.23042969 9.13054688 1.36320313 8.25 1.5 C7.14527344 1.67660156 6.04054688 1.85320312 4.90234375 2.03515625 C3.80019531 2.20917969 2.69804688 2.38320312 1.5625 2.5625 C-1.06442554 2.81610761 -1.06442554 2.81610761 -2.16015625 4.09765625 C-2.2594583 6.07594117 -2.28815084 8.05779907 -2.28955078 10.03857422 C-2.29270294 11.31014374 -2.2958551 12.58171326 -2.29910278 13.89181519 C-2.29731262 15.29115839 -2.29526157 16.69050128 -2.29296875 18.08984375 C-2.29364197 19.51612362 -2.29461214 20.94240338 -2.29586792 22.36868286 C-2.29734501 25.36314991 -2.29519063 28.35758719 -2.29052734 31.35205078 C-2.28484034 35.19118569 -2.28810244 39.03025054 -2.29409981 42.86938286 C-2.29771392 45.81703214 -2.29656273 48.76466483 -2.29397202 51.71231461 C-2.29330457 53.12770725 -2.29412483 54.54310139 -2.29645157 55.95849228 C-2.29899082 57.93831097 -2.29443443 59.91813493 -2.28955078 61.89794922 C-2.28875519 63.0252243 -2.28795959 64.15249939 -2.28713989 65.31393433 C-2.28300682 68.18355224 -2.28300682 68.18355224 -1.16015625 71.09765625 C29.52984375 71.42765625 60.21984375 71.75765625 91.83984375 72.09765625 C92.16984375 72.75765625 92.49984375 73.41765625 92.83984375 74.09765625 C60.82984375 74.09765625 28.81984375 74.09765625 -4.16015625 74.09765625 C-4.18078125 62.07328125 -4.20140625 50.04890625 -4.22265625 37.66015625 C-4.23176025 33.85814697 -4.24086426 30.0561377 -4.25024414 26.13891602 C-4.25476074 21.50964355 -4.25476074 21.50964355 -4.25559998 19.34507751 C-4.25713936 17.82761848 -4.26066417 16.3101607 -4.26573181 14.79270935 C-4.27301063 12.49923566 -4.27406362 10.20583696 -4.27368164 7.91235352 C-4.27590225 6.61773697 -4.27812286 5.32312042 -4.28041077 3.98927307 C-4.1124992 -0.04829597 -4.08243337 0.12615678 0 0 Z " fill="#5C0516" transform="translate(52.16015625,212.90234375)"/>
<path d="M0 0 C3.3 0 6.6 0 10 0 C9.67 2.64 9.34 5.28 9 8 C8.01 8.33 7.02 8.66 6 9 C6.495 9.45375 6.99 9.9075 7.5 10.375 C9 12 9 12 9 14 C8.34 14 7.68 14 7 14 C7 20.27 7 26.54 7 33 C4.69 33 2.38 33 0 33 C0 22.11 0 11.22 0 0 Z " fill="#F7F0F1" transform="translate(166,232)"/>
<path d="M0 0 C0.33 0.66 0.66 1.32 1 2 C1.66 2.33 2.32 2.66 3 3 C2.34 3 1.68 3 1 3 C1 3.66 1 4.32 1 5 C0.34 5 -0.32 5 -1 5 C-1 5.99 -1 6.98 -1 8 C0.97536745 7.65213292 0.97536745 7.65213292 3 7 C3.33 6.34 3.66 5.68 4 5 C4.33 5.66 4.66 6.32 5 7 C4.67 7.66 4.34 8.32 4 9 C3.85359499 10.64142541 3.77903411 12.2898141 3.75 13.9375 C3.72421875 14.81277344 3.6984375 15.68804687 3.671875 16.58984375 C3.81135642 19.03342039 3.81135642 19.03342039 5.28515625 20.7734375 C7.96520122 22.69037172 10.78438303 22.69663991 14 23 C14 23.33 14 23.66 14 24 C12.02 24 10.04 24 8 24 C8 24.66 8 25.32 8 26 C8.66 26 9.32 26 10 26 C9.67 26.99 9.34 27.98 9 29 C6.875 29.75 6.875 29.75 4 30 C-0.2874011 27.90004844 -3.11683801 25.35416308 -5.30078125 21.05078125 C-6.96330618 16.17466065 -7.06929355 11.32953237 -4.90625 6.6171875 C-3.4450019 4.24690715 -1.97481052 1.97481052 0 0 Z " fill="#EFE5E7" transform="translate(307,235)"/>
<path d="M0 0 C6.0546875 -0.1953125 6.0546875 -0.1953125 8 0 C8.66 0.66 9.32 1.32 10 2 C9.73046875 3.8125 9.73046875 3.8125 9.1875 6 C8.53126623 10.52801301 9.63061301 12.53991297 12.3125 16.1875 C12.95960938 17.01378906 13.60671875 17.84007812 14.2734375 18.69140625 C16.24207548 21.32368011 17.2437939 23.80712981 18 27 C15.03 27 12.06 27 9 27 C7.98422665 25.30099815 6.9880102 23.59029549 6 21.875 C5.1646875 20.44800781 5.1646875 20.44800781 4.3125 18.9921875 C2.88369346 15.73484878 2.74958691 13.5162171 3 10 C2.01 9.67 1.02 9.34 0 9 C0 6.03 0 3.06 0 0 Z " fill="#F3EEEF" transform="translate(279,239)"/>
<path d="M0 0 C0.33 0 0.66 0 1 0 C1.33 2.64 1.66 5.28 2 8 C2.99 7.67 3.98 7.34 5 7 C5.226875 7.639375 5.45375 8.27875 5.6875 8.9375 C6.85250896 11.27193661 6.85250896 11.27193661 9.625 11.75 C10.40875 11.8325 11.1925 11.915 12 12 C11.34 13.65 10.68 15.3 10 17 C9.01 17 8.02 17 7 17 C7 20.96 7 24.92 7 29 C4.69 29 2.38 29 0 29 C0 19.43 0 9.86 0 0 Z " fill="#F8F1F2" transform="translate(272,236)"/>
<path d="M0 0 C0.66 0 1.32 0 2 0 C1.67 0.78375 1.34 1.5675 1 2.375 C-0.48508112 7.75841904 -1.2523274 13.04131416 0.98046875 18.31640625 C3.13526422 21.91657223 5.33031435 24.82537147 9 27 C3.65155992 26.46515599 -0.35796103 24.53309233 -5 22 C-4.67 19.69 -4.34 17.38 -4 15 C-4.99 15.33 -5.98 15.66 -7 16 C-7.33 17.65 -7.66 19.3 -8 21 C-12 16.25 -12 16.25 -12 14 C-11.21625 13.62875 -10.4325 13.2575 -9.625 12.875 C-5.78117411 10.12941008 -5.82296013 7.56368802 -5 3 C-4.34 3 -3.68 3 -3 3 C-2.67 2.34 -2.34 1.68 -2 1 C-1.34 1.33 -0.68 1.66 0 2 C0 1.34 0 0.68 0 0 Z " fill="#53212E" transform="translate(302,238)"/>
<path d="M0 0 C0.33 0 0.66 0 1 0 C1.85792889 52.72031392 1.85792889 52.72031392 -3 73 C-3.22445801 73.9688916 -3.44891602 74.9377832 -3.68017578 75.93603516 C-5.01653758 81.65409476 -6.45551132 87.33476488 -8 93 C-8.33 93 -8.66 93 -9 93 C-9.09765625 86.84765625 -9.09765625 86.84765625 -9 85 C-8.505 84.505 -8.505 84.505 -8 84 C-7.855625 82.96875 -7.71125 81.9375 -7.5625 80.875 C-7 77 -7 77 -6 73.625 C-5.00261997 70.0094974 -4.56002039 66.64024176 -4.24609375 62.91796875 C-4 61 -4 61 -3 59 C-3 57.12237371 -3.0032736 55.2446595 -3.02734375 53.3671875 C-2.90540541 42.81081081 -2.90540541 42.81081081 -1 39 C-0.84279903 36.0851463 -0.74144346 33.19060364 -0.68359375 30.2734375 C-0.66281265 29.41062164 -0.64203156 28.54780579 -0.62062073 27.65884399 C-0.55513966 24.89764507 -0.49624702 22.13634962 -0.4375 19.375 C-0.3943134 17.50519828 -0.35069907 15.63540638 -0.30664062 13.765625 C-0.19945976 9.17718272 -0.09818825 4.58864317 0 0 Z " fill="#959FAB" transform="translate(487,226)"/>
<path d="M0 0 C0.33 0 0.66 0 1 0 C2.18982084 7.41226226 1.67959957 13.69860023 0 21 C-0.66 21 -1.32 21 -2 21 C-1.96970703 21.63389648 -1.93941406 22.26779297 -1.90820312 22.92089844 C-0.92538983 43.73386001 -0.92538983 43.73386001 -1 50.8125 C-1.06273976 56.94307045 -0.94996828 63.15009515 1 69 C0.91232913 71.74607776 0.77043265 74.45091508 0.5625 77.1875 C0.51029297 77.93708984 0.45808594 78.68667969 0.40429688 79.45898438 C0.27486216 81.30637082 0.13813482 83.15324371 0 85 C-0.33 85 -0.66 85 -1 85 C-3.54399404 73.39839695 -3.33826117 61.71764951 -3.31567383 49.90112305 C-3.31252938 46.46956117 -3.33597921 43.03887676 -3.36132812 39.60742188 C-3.39815162 26.12601061 -2.48241398 13.25550833 0 0 Z " fill="#884A5A" transform="translate(15,204)"/>
<path d="M0 0 C9.71407335 -0.0895765 19.42178645 -0.15790737 29.125 0.375 C30.40632813 0.44460937 31.68765625 0.51421875 33.0078125 0.5859375 C36 1 36 1 38 3 C38.22705078 5.61376953 38.22705078 5.61376953 38.1953125 8.8828125 C38.18886719 10.04941406 38.18242187 11.21601563 38.17578125 12.41796875 C38.15902344 13.64128906 38.14226562 14.86460937 38.125 16.125 C38.11597656 17.35605469 38.10695313 18.58710938 38.09765625 19.85546875 C38.07402548 22.90383815 38.04108054 25.95182382 38 29 C37.67 29 37.34 29 37 29 C36.505 16.13 36.505 16.13 36 3 C23.13 3 10.26 3 -3 3 C-2.01 2.67 -1.02 2.34 0 2 C0 1.34 0 0.68 0 0 Z " fill="#242D4E" transform="translate(427,212)"/>
<path d="M0 0 C0.33 0.99 0.66 1.98 1 3 C1.99 3.33 2.98 3.66 4 4 C2.71283353 5.00578589 1.42011342 6.00446798 0.125 7 C-0.59429687 7.556875 -1.31359375 8.11375 -2.0546875 8.6875 C-4 10 -4 10 -6 10 C-6 10.66 -6 11.32 -6 12 C-5.34 12.33 -4.68 12.66 -4 13 C-4.72316406 13.76183594 -4.72316406 13.76183594 -5.4609375 14.5390625 C-9.17339693 18.58488563 -11.50169814 21.63108498 -13 27 C-14.5 28.875 -14.5 28.875 -16 30 C-16.66 30 -17.32 30 -18 30 C-18 30.99 -18 31.98 -18 33 C-19.485 33.495 -19.485 33.495 -21 34 C-16.46216366 22.25990966 -8.98638586 8.98638586 0 0 Z " fill="#72475D" transform="translate(60,105)"/>
<path d="M0 0 C2.15276788 2.70573375 3.71690029 5.28548417 5.0859375 8.45703125 C5.45726807 9.31562744 5.82859863 10.17422363 6.21118164 11.05883789 C6.5952417 11.96754639 6.97930176 12.87625488 7.375 13.8125 C7.77130615 14.74505615 8.1676123 15.6776123 8.57592773 16.63842773 C17 36.72421428 17 36.72421428 17 44 C15.515 43.505 15.515 43.505 14 43 C14.061875 42.278125 14.12375 41.55625 14.1875 40.8125 C14.2205615 37.94905857 14.2205615 37.94905857 12.5625 35.71875 C10.7944102 32.64227375 10.31227533 30.1859273 9.8125 26.6875 C9.65394531 25.61886719 9.49539063 24.55023438 9.33203125 23.44921875 C9.22246094 22.64097656 9.11289062 21.83273438 9 21 C8.34 21 7.68 21 7 21 C6.731875 20.071875 6.46375 19.14375 6.1875 18.1875 C5.053317 15.14311405 4.30315842 14.10288378 2 12 C1.67 11.01 1.34 10.02 1 9 C1.33 8.34 1.66 7.68 2 7 C1.34 6.67 0.68 6.34 0 6 C0 4.02 0 2.04 0 0 Z " fill="#7888A4" transform="translate(462,141)"/>
<path d="M0 0 C0.33 0.99 0.66 1.98 1 3 C-1.27518281 6.45490723 -3.25925533 8.32311446 -7 10 C-7.33 10.66 -7.66 11.32 -8 12 C-7.34 12 -6.68 12 -6 12 C-6 12.66 -6 13.32 -6 14 C-6.66 14 -7.32 14 -8 14 C-8 14.66 -8 15.32 -8 16 C-8.804375 16.28875 -9.60875 16.5775 -10.4375 16.875 C-13.1326468 17.73262568 -13.1326468 17.73262568 -14 20 C-16.35488663 22.5903753 -17.63324596 23.87774865 -21 25 C-19.32720209 21.03912218 -16.64625927 17.97805509 -13.875 14.75 C-13.38797607 14.17805908 -12.90095215 13.60611816 -12.39916992 13.0168457 C-8.4787847 8.45752575 -4.36415862 4.13907308 0 0 Z " fill="#3F1432" transform="translate(82,80)"/>
<path d="M0 0 C1.36623674 2.73247348 1.128426 4.98198902 1 8 C0.67 8.33 0.34 8.66 0 9 C0.99 9.33 1.98 9.66 3 10 C3.33 11.98 3.66 13.96 4 16 C2.66666667 16.66666667 1.33333333 17.33333333 0 18 C0 17.34 0 16.68 0 16 C-3.96 16 -7.92 16 -12 16 C-11.67 15.34 -11.34 14.68 -11 14 C-7.7 14.33 -4.4 14.66 -1 15 C-1.7425 13.7315625 -1.7425 13.7315625 -2.5 12.4375 C-4.14747708 8.66203168 -4.24430947 6.07182452 -4 2 C-2.68 1.34 -1.36 0.68 0 0 Z " fill="#4F1926" transform="translate(298,251)"/>
<path d="M0 0 C2.42597831 2.42597831 2.60651873 3.63354911 3 7 C2.66015625 9.67578125 2.66015625 9.67578125 2.0625 12.3125 C1.86785156 13.19550781 1.67320312 14.07851562 1.47265625 14.98828125 C1.31667969 15.65214844 1.16070312 16.31601563 1 17 C0.34 16.01 -0.32 15.02 -1 14 C-1.33 19.61 -1.66 25.22 -2 31 C-4.64 31 -7.28 31 -10 31 C-10 30.67 -10 30.34 -10 30 C-7.69 30 -5.38 30 -3 30 C-3 23.73 -3 17.46 -3 11 C-2.34 11 -1.68 11 -1 11 C-1 10.34 -1 9.68 -1 9 C-1.99 8.67 -2.98 8.34 -4 8 C-4 7.34 -4 6.68 -4 6 C-3.34 5.67 -2.68 5.34 -2 5 C-1.27840576 3.35636866 -0.60648579 1.68949614 0 0 Z " fill="#EBD9D9" transform="translate(176,235)"/>
<path d="M0 0 C0.33 0 0.66 0 1 0 C2.3443472 17.98064382 2.09820732 35.98273374 2 54 C1.67 54 1.34 54 1 54 C0.97494385 53.3702124 0.9498877 52.7404248 0.92407227 52.09155273 C0.80721573 49.20670659 0.68489979 46.32211605 0.5625 43.4375 C0.52318359 42.44685547 0.48386719 41.45621094 0.44335938 40.43554688 C0.27050217 36.43323778 0.0908374 32.5500709 -0.5625 28.59375 C-1.23522289 23.06781195 -0.83695818 17.61160267 -0.5625 12.0625 C-0.51029297 10.90169922 -0.45808594 9.74089844 -0.40429688 8.54492188 C-0.27534663 5.69629383 -0.14041411 2.84808213 0 0 Z " fill="#33384F" transform="translate(463,224)"/>
<path d="M0 0 C6.0546875 -0.1953125 6.0546875 -0.1953125 8 0 C8.66 0.66 9.32 1.32 10 2 C9.44444444 6.55555556 9.44444444 6.55555556 8 8 C5.32941149 8.14115161 2.67567762 8.04247107 0 8 C0 5.36 0 2.72 0 0 Z " fill="#521726" transform="translate(279,239)"/>
<path d="M0 0 C0.99 1.485 0.99 1.485 2 3 C3.84725228 3.4732293 3.84725228 3.4732293 5.99072266 3.43237305 C6.81142242 3.45216721 7.63212219 3.47196136 8.47769165 3.49235535 C9.36419403 3.49874527 10.25069641 3.50513519 11.1640625 3.51171875 C12.52487442 3.53864555 12.52487442 3.53864555 13.91317749 3.56611633 C16.81707072 3.62039427 19.720798 3.65417073 22.625 3.6875 C24.59116902 3.72065767 26.55731609 3.75514587 28.5234375 3.79101562 C33.34883888 3.87613065 38.17418955 3.94285806 43 4 C42.67 4.66 42.34 5.32 42 6 C37.46509185 6.02493183 32.93022461 6.04296857 28.39526367 6.05493164 C26.85619409 6.05992496 25.31712916 6.06672194 23.77807617 6.07543945 C15.79274406 6.11950003 7.92367363 6.14483112 0 5 C0 3.35 0 1.7 0 0 Z " fill="#6D0C1B" transform="translate(49,281)"/>
<path d="M0 0 C1.23556641 0.01740234 1.23556641 0.01740234 2.49609375 0.03515625 C3.32238281 0.04417969 4.14867187 0.05320313 5 0.0625 C5.63808594 0.07410156 6.27617187 0.08570313 6.93359375 0.09765625 C5.5238267 3.1361833 3.84489147 5.69161575 1.80859375 8.34765625 C1.26976562 9.0540625 0.7309375 9.76046875 0.17578125 10.48828125 C-0.23414063 11.019375 -0.6440625 11.55046875 -1.06640625 12.09765625 C-1.72640625 11.43765625 -2.38640625 10.77765625 -3.06640625 10.09765625 C-2.40640625 10.09765625 -1.74640625 10.09765625 -1.06640625 10.09765625 C-0.92203125 9.47890625 -0.77765625 8.86015625 -0.62890625 8.22265625 C-0.06640625 6.09765625 -0.06640625 6.09765625 0.93359375 4.09765625 C0.27359375 4.09765625 -0.38640625 4.09765625 -1.06640625 4.09765625 C-1.06640625 4.75765625 -1.06640625 5.41765625 -1.06640625 6.09765625 C-2.71640625 6.09765625 -4.36640625 6.09765625 -6.06640625 6.09765625 C-2.54117689 0.12009343 -2.54117689 0.12009343 0 0 Z " fill="#F9ECEE" transform="translate(245.06640625,231.90234375)"/>
<path d="M0 0 C0.66 0 1.32 0 2 0 C0.8905928 3.48670834 -0.26337666 6.77484237 -2 10 C-2.99 10 -3.98 10 -5 10 C-4.938125 11.423125 -4.938125 11.423125 -4.875 12.875 C-5 16 -5 16 -7 18 C-8.62856381 12.3740523 -7.47416112 7.21341093 -5 2 C-4.01 1.67 -3.02 1.34 -2 1 C-1.34 1.33 -0.68 1.66 0 2 C0 1.34 0 0.68 0 0 Z " fill="#F7F1F3" transform="translate(244,236)"/>
<path d="M0 0 C3.02818852 2.68644938 4.94704936 5.88428374 7.0625 9.3125 C7.75472656 10.42238281 8.44695312 11.53226563 9.16015625 12.67578125 C10.86536857 15.75674874 12.0158236 18.6293233 13 22 C11.02 21.34 9.04 20.68 7 20 C7 18.35 7 16.7 7 15 C6.01 14.67 5.02 14.34 4 14 C4.33 12.68 4.66 11.36 5 10 C4.01 9.67 3.02 9.34 2 9 C0.29466783 5.67908998 0 3.81507216 0 0 Z " fill="#606D97" transform="translate(449,119)"/>
<path d="M0 0 C0.33 0 0.66 0 1 0 C1.28571429 7.42857143 1.28571429 7.42857143 -1 11 C-1.66 11 -2.32 11 -3 11 C-2.79375 11.598125 -2.5875 12.19625 -2.375 12.8125 C-2 15 -2 15 -4 18 C-4.38499891 19.65549531 -4.72793135 21.3222433 -5 23 C-5.99 23.33 -6.98 23.66 -8 24 C-7.3661521 18.482845 -5.49435691 13.73252191 -3.4375 8.625 C-2.9434668 7.37783203 -2.9434668 7.37783203 -2.43945312 6.10546875 C-1.63155238 4.06815382 -0.8182989 2.03315558 0 0 Z " fill="#946B7B" transform="translate(31,153)"/>
<path d="M0 0 C4.69564393 3.31457218 7.72469104 7.36279281 11 12 C10.67 12.66 10.34 13.32 10 14 C7.525 13.01 7.525 13.01 5 12 C5 11.34 5 10.68 5 10 C4.01 10.33 3.02 10.66 2 11 C1 8 1 8 1 6 C0.01 5.67 -0.98 5.34 -2 5 C-1.34 3.35 -0.68 1.7 0 0 Z " fill="#424681" transform="translate(430,94)"/>
<path d="M0 0 C3.34155992 2.75678693 4.87593546 4.13154822 5.5 8.5 C4.98284241 12.1201031 4.25247135 14.14109406 2 17 C1.34 17 0.68 17 0 17 C-0.06742814 13.08916784 -0.09294953 9.54736947 0.5625 5.6875 C1.22819173 2.91032625 1.22819173 2.91032625 0 0 Z " fill="#F2E7EA" transform="translate(292,234)"/>
<path d="M0 0 C0.66 0.33 1.32 0.66 2 1 C1.67 1.99 1.34 2.98 1 4 C1.66 4 2.32 4 3 4 C3.33 4.99 3.66 5.98 4 7 C4.474375 7.433125 4.94875 7.86625 5.4375 8.3125 C7.56496206 10.61015902 8.14128008 13.02750796 9 16 C8.01 16.99 7.02 17.98 6 19 C4.80057395 16.40074504 3.61527179 13.79654493 2.4375 11.1875 C1.92413086 10.08051758 1.92413086 10.08051758 1.40039062 8.95117188 C1.08134766 8.23896484 0.76230469 7.52675781 0.43359375 6.79296875 C0.13509521 6.1383667 -0.16340332 5.48376465 -0.47094727 4.80932617 C-1 3 -1 3 0 0 Z " fill="#7F4852" transform="translate(29,336)"/>
<path d="M0 0 C0.99 0 1.98 0 3 0 C3.433125 0.9590625 3.433125 0.9590625 3.875 1.9375 C4.82823451 4.15206079 4.82823451 4.15206079 7 5 C7 5.66 7 6.32 7 7 C7.66 7 8.32 7 9 7 C9.36279456 8.28926992 9.71496698 9.58153272 10.0625 10.875 C10.25972656 11.59429687 10.45695312 12.31359375 10.66015625 13.0546875 C11 15 11 15 10 17 C8.8936781 15.43902526 7.79004215 13.87614673 6.6875 12.3125 C6.07261719 11.44238281 5.45773438 10.57226562 4.82421875 9.67578125 C0 2.59957173 0 2.59957173 0 0 Z " fill="#6C3B45" transform="translate(45,371)"/>
<path d="M0 0 C1.84047069 2.76070603 2.33169035 3.84707258 2.8515625 6.94921875 C2.98046875 7.71556641 3.109375 8.48191406 3.2421875 9.27148438 C3.36851562 10.06876953 3.49484375 10.86605469 3.625 11.6875 C3.7590625 12.46544922 3.893125 13.24339844 4.03125 14.04492188 C4.85677085 19.09491934 5.12862047 23.88441312 5 29 C4.67 29 4.34 29 4 29 C3.67 25.04 3.34 21.08 3 17 C2.34 17 1.68 17 1 17 C0.855625 16.2575 0.71125 15.515 0.5625 14.75 C0.08847162 12.12921046 0.08847162 12.12921046 -0.625 10.1875 C-1.22226755 6.70343929 -0.52266557 3.48443711 0 0 Z " fill="#90A1B4" transform="translate(482,197)"/>
<path d="M0 0 C13.40566038 11.21698113 13.40566038 11.21698113 15 16 C13.35 16 11.7 16 10 16 C9.34 14.02 8.68 12.04 8 10 C7.01 10 6.02 10 5 10 C5 8.68 5 7.36 5 6 C3.68 6 2.36 6 1 6 C0.67 4.02 0.34 2.04 0 0 Z " fill="#5E5990" transform="translate(415,78)"/>
<path d="M0 0 C1.98 0.99 1.98 0.99 4 2 C3.67 2.99 3.34 3.98 3 5 C4.32 5.33 5.64 5.66 7 6 C6.67 6.33 6.34 6.66 6 7 C8.475 7.99 8.475 7.99 11 9 C11 10.32 11 11.64 11 13 C10.34 13 9.68 13 9 13 C8.67 13.99 8.34 14.98 8 16 C6.66141476 13.71125827 5.32898986 11.41930344 4 9.125 C3.6184375 8.47402344 3.236875 7.82304687 2.84375 7.15234375 C0 2.2265625 0 2.2265625 0 0 Z " fill="#6B303A" transform="translate(36,355)"/>
<path d="M0 0 C6.17398461 3.15267299 10.94783982 7.28006804 16 12 C12.79937313 13.60031344 10.27728194 12.03173691 7 11 C6.87625 10.195625 6.7525 9.39125 6.625 8.5625 C6.41875 7.716875 6.2125 6.87125 6 6 C5.34 5.67 4.68 5.34 4 5 C3.01 6.485 3.01 6.485 2 8 C1.34 8 0.68 8 0 8 C0.50603992 5.83125748 0.99983813 4.00032373 2 2 C1.34 2 0.68 2 0 2 C0 1.34 0 0.68 0 0 Z " fill="#666196" transform="translate(395,61)"/>
<path d="M0 0 C2.00720923 0.28674418 4.0085944 0.61866701 6 1 C5.06409496 2.1055189 4.12620142 3.20935453 3.1875 4.3125 C2.66542969 4.92738281 2.14335937 5.54226563 1.60546875 6.17578125 C0.12827531 7.85424679 -1.40039131 9.43882034 -3 11 C-3.66 10.67 -4.32 10.34 -5 10 C-4.7525 8.824375 -4.7525 8.824375 -4.5 7.625 C-3.9376293 5.11791961 -3.9376293 5.11791961 -4 3 C-3.01 2.34 -2.02 1.68 -1 1 C-0.67 0.67 -0.34 0.34 0 0 Z " fill="#64535B" transform="translate(414,416)"/>
<path d="M0 0 C3.90455937 1.42502167 7.24835962 3.26652127 10.75 5.5 C11.71421875 6.1084375 12.6784375 6.716875 13.671875 7.34375 C16 9 16 9 17 11 C10.25 9.25 10.25 9.25 8 7 C7.01 7 6.02 7 5 7 C3.5 5.625 3.5 5.625 2 4 C1.01 3.34 0.02 2.68 -1 2 C-0.67 1.34 -0.34 0.68 0 0 Z " fill="#5A5286" transform="translate(371,45)"/>
<path d="M0 0 C0.33 0 0.66 0 1 0 C2.18982084 7.41226226 1.67959957 13.69860023 0 21 C-0.66 21 -1.32 21 -2 21 C-2 23.31 -2 25.62 -2 28 C-2.33 28 -2.66 28 -3 28 C-3.17743987 21.67131138 -2.50712088 15.74233484 -1.5 9.5 C-1.35691406 8.5821875 -1.21382812 7.664375 -1.06640625 6.71875 C-0.7163295 4.47825881 -0.3607651 2.23879053 0 0 Z " fill="#A2727F" transform="translate(15,204)"/>
<path d="M0 0 C0.804375 0.5259375 0.804375 0.5259375 1.625 1.0625 C4.73274763 2.28924249 6.79431703 1.72856431 10 1 C10 1.66 10 2.32 10 3 C8.75539217 3.67667998 7.50403104 4.34094719 6.25 5 C5.20585937 5.556875 5.20585937 5.556875 4.140625 6.125 C2 7 2 7 -2 7 C-1.125 1.125 -1.125 1.125 0 0 Z " fill="#543D4E" transform="translate(340,464)"/>
<path d="M0 0 C0.33 0 0.66 0 1 0 C1.06058594 0.68707031 1.12117187 1.37414062 1.18359375 2.08203125 C1.26738281 2.98308594 1.35117188 3.88414062 1.4375 4.8125 C1.51871094 5.70582031 1.59992187 6.59914063 1.68359375 7.51953125 C1.93489767 10.12743559 1.93489767 10.12743559 3 13 C2.91232913 15.74607776 2.77043265 18.45091508 2.5625 21.1875 C2.51029297 21.93708984 2.45808594 22.68667969 2.40429688 23.45898438 C2.27486216 25.30637082 2.13813482 27.15324371 2 29 C1.67 29 1.34 29 1 29 C-0.30433619 23.06372979 -0.11086318 17.16667748 -0.0625 11.125 C-0.05798828 10.05507813 -0.05347656 8.98515625 -0.04882812 7.8828125 C-0.03709749 5.25515014 -0.02068228 2.62760462 0 0 Z " fill="#7F3F4D" transform="translate(13,260)"/>
<path d="M0 0 C0.99 0 1.98 0 3 0 C3.69965443 1.26418246 4.38434763 2.53665402 5.0625 3.8125 C5.63677734 4.87404297 5.63677734 4.87404297 6.22265625 5.95703125 C7 8 7 8 6 11 C6 10.34 6 9.68 6 9 C4.05925139 9.27617533 4.05925139 9.27617533 2 10 C1.34 10.99 0.68 11.98 0 13 C0 8.71 0 4.42 0 0 Z " fill="#683B45" transform="translate(279,253)"/>
<path d="M0 0 C-2.65654657 3.73884332 -4.58110387 5.64978174 -9 7 C-9.33 5.02 -9.66 3.04 -10 1 C-6.42181037 -1.33958553 -4.07775191 -0.9267618 0 0 Z " fill="#614F59" transform="translate(402,433)"/>
<path d="M0 0 C0 4.15560231 -2.2820452 5.84099329 -5 8.6875 C-5.47695313 9.19861328 -5.95390625 9.70972656 -6.4453125 10.23632812 C-7.62359915 11.49709484 -8.81095253 12.74937686 -10 14 C-10.58203125 12.109375 -10.58203125 12.109375 -11 10 C-9.6875 8.25 -9.6875 8.25 -8 7 C-7.34 7 -6.68 7 -6 7 C-5.7525 6.030625 -5.505 5.06125 -5.25 4.0625 C-4.8375 3.051875 -4.425 2.04125 -4 1 C-1.875 0.125 -1.875 0.125 0 0 Z " fill="#81787D" transform="translate(437,396)"/>
<path d="M0 0 C0.33 0.99 0.66 1.98 1 3 C-1.27518281 6.45490723 -3.25925533 8.32311446 -7 10 C-7.33 10.66 -7.66 11.32 -8 12 C-7.34 12 -6.68 12 -6 12 C-6 12.66 -6 13.32 -6 14 C-6.61875 13.814375 -7.2375 13.62875 -7.875 13.4375 C-10.04160178 12.76313824 -10.04160178 12.76313824 -12 14 C-10.41332422 10.09714233 -7.86649519 7.66479018 -4.875 4.75 C-3.96492188 3.85796875 -3.05484375 2.9659375 -2.1171875 2.046875 C-1.41851562 1.37140625 -0.71984375 0.6959375 0 0 Z " fill="#72506A" transform="translate(82,80)"/>
<path d="M0 0 C0.66 0.33 1.32 0.66 2 1 C0.87548273 3.9719385 -0.22293791 6.33440687 -2 9 C-3.9453125 9.51171875 -3.9453125 9.51171875 -6.125 9.6875 C-8.043125 9.8421875 -8.043125 9.8421875 -10 10 C-7.02911382 6.00073014 -3.87051275 3.07881696 0 0 Z " fill="#654A65" transform="translate(98,65)"/>
<path d="M0 0 C0.99 0.33 1.98 0.66 3 1 C4.0625 3.375 4.0625 3.375 5 6 C5.99 7.485 5.99 7.485 7 9 C6.96856707 11.73990408 6.44521663 14.28417854 6 17 C3.97774806 13.9666221 3.00652476 11.38655511 1.875 7.9375 C1.52179687 6.87402344 1.16859375 5.81054688 0.8046875 4.71484375 C0 2 0 2 0 0 Z " fill="#8E5561" transform="translate(22,320)"/>
<path d="M0 0 C3.09592835 3.5087188 4.74194623 6.49197399 6 11 C3.03 11 0.06 11 -3 11 C-2.505 10.484375 -2.01 9.96875 -1.5 9.4375 C0.49649241 6.19319983 0.21564385 3.73782666 0 0 Z " fill="#E9D5DA" transform="translate(291,255)"/>
<path d="M0 0 C2.92602095 1.46301048 3.09705209 3.41022764 4.1875 6.4375 C4.55230469 7.42621094 4.91710937 8.41492188 5.29296875 9.43359375 C6 12 6 12 5 14 C3.68 13.67 2.36 13.34 1 13 C-0.10228696 8.59085217 -0.07654536 4.51617599 0 0 Z " fill="#752F39" transform="translate(174,248)"/>
<path d="M0 0 C2 3 2 3 2 7 C2.66 7 3.32 7 4 7 C4.66 8.98 5.32 10.96 6 13 C3.69 12.34 1.38 11.68 -1 11 C-1.02688151 9.35425434 -1.04634123 7.70838587 -1.0625 6.0625 C-1.07410156 5.14597656 -1.08570313 4.22945312 -1.09765625 3.28515625 C-1 1 -1 1 0 0 Z " fill="#0E2A61" transform="translate(467,155)"/>
<path d="M0 0 C0.33 0.66 0.66 1.32 1 2 C1.99 2.66 2.98 3.32 4 4 C0.04 5.98 0.04 5.98 -4 8 C-4.66 6.02 -5.32 4.04 -6 2 C-4.02 1.34 -2.04 0.68 0 0 Z " fill="#58404F" transform="translate(374,448)"/>
<path d="M0 0 C3.96 0 7.92 0 12 0 C11.34 1.65 10.68 3.3 10 5 C7.875 5.8125 7.875 5.8125 6 6 C5.7525 5.195625 5.505 4.39125 5.25 3.5625 C4.8375 2.716875 4.425 1.87125 4 1 C2.68 0.67 1.36 0.34 0 0 Z " fill="#56141F" transform="translate(242,266)"/>
<path d="M0 0 C0.66 0 1.32 0 2 0 C2.33 1.65 2.66 3.3 3 5 C4.32 5.33 5.64 5.66 7 6 C6.67 6.99 6.34 7.98 6 9 C6.33 9.33 6.66 9.66 7 10 C7.66 10 8.32 10 9 10 C9 10.66 9 11.32 9 12 C7.35 12 5.7 12 4 12 C3.71125 11.21625 3.4225 10.4325 3.125 9.625 C2.15087746 6.90328368 2.15087746 6.90328368 0 5 C0 3.33333333 0 1.66666667 0 0 Z " fill="#031B60" transform="translate(448,123)"/>
<path d="M0 0 C0 0.66 0 1.32 0 2 C-0.99 2 -1.98 2 -3 2 C-3 2.99 -3 3.98 -3 5 C-6 7 -6 7 -9 7 C-9 7.66 -9 8.32 -9 9 C-9.99 9.33 -10.98 9.66 -12 10 C-12.66 9.34 -13.32 8.68 -14 8 C-12.04532248 6.66101601 -10.0866421 5.32870953 -8.125 4 C-7.03445312 3.2575 -5.94390625 2.515 -4.8203125 1.75 C-2 0 -2 0 0 0 Z " fill="#6C5974" transform="translate(130,44)"/>
<path d="M0 0 C1.96838018 2.95257027 2.39061574 4.60485915 3 8 C3.33 8.66 3.66 9.32 4 10 C3.67 10.99 3.34 11.98 3 13 C3.66 13 4.32 13 5 13 C5 15.97 5 18.94 5 22 C2.85773643 18.78660465 2.22972551 16.43016168 1.375 12.6875 C1.11460938 11.57761719 0.85421875 10.46773438 0.5859375 9.32421875 C0.0237766 6.13489257 -0.10749599 3.22976591 0 0 Z " fill="#AE7D88" transform="translate(15,290)"/>
<path d="M0 0 C6.0546875 -0.1953125 6.0546875 -0.1953125 8 0 C8.66 0.66 9.32 1.32 10 2 C9.625 4.625 9.625 4.625 9 7 C8.01 7 7.02 7 6 7 C5.67 6.01 5.34 5.02 5 4 C5.66 3.67 6.32 3.34 7 3 C5.02 2.34 3.04 1.68 1 1 C1 3.31 1 5.62 1 8 C0.67 8 0.34 8 0 8 C0 5.36 0 2.72 0 0 Z " fill="#633B44" transform="translate(279,239)"/>
<path d="M0 0 C2.53326372 3.13642175 4.47344816 6.25994799 6 10 C5.6875 12.875 5.6875 12.875 5 15 C2.7522025 12.94766315 1.9977758 11.99332739 1 9 C1.33 8.34 1.66 7.68 2 7 C1.34 6.67 0.68 6.34 0 6 C0 4.02 0 2.04 0 0 Z " fill="#53678D" transform="translate(462,141)"/>
<path d="M0 0 C1.4606285 2.64738916 2 3.89448334 2 7 C0.02 7.33 -1.96 7.66 -4 8 C-4.33 6.35 -4.66 4.7 -5 3 C-3.35 2.01 -1.7 1.02 0 0 Z " fill="#F3F2F2" transform="translate(328,254)"/>
<path d="M0 0 C0.33 0 0.66 0 1 0 C1 5.61 1 11.22 1 17 C0.34 17.33 -0.32 17.66 -1 18 C-2.3287931 12.38954024 -2.64469248 5.28938497 0 0 Z " fill="#677382" transform="translate(486,265)"/>
<path d="M0 0 C2 3 2 3 2 6 C2.99 6 3.98 6 5 6 C4.39773952 10.21582339 3.42902856 10.57097144 0 14 C0 9.38 0 4.76 0 0 Z " fill="#622933" transform="translate(232,232)"/>
<path d="M0 0 C0.66 0.99 1.32 1.98 2 3 C1.34 3 0.68 3 0 3 C0 5.31 0 7.62 0 10 C-1.32 10.33 -2.64 10.66 -4 11 C-4 11.99 -4 12.98 -4 14 C-4.66 14 -5.32 14 -6 14 C-4.50829734 9.0276578 -2.39542583 4.58154261 0 0 Z " fill="#865A6E" transform="translate(38,139)"/>
<path d="M0 0 C0.66 0.66 1.32 1.32 2 2 C1.01 2.495 1.01 2.495 0 3 C0 2.01 0 1.02 0 0 Z M-2 3 C-1.01 3.33 -0.02 3.66 1 4 C-0.28062485 5.7074998 -1.61767557 7.37373596 -3 9 C-3.66 9 -4.32 9 -5 9 C-5 9.99 -5 10.98 -5 12 C-5.99 12.33 -6.98 12.66 -8 13 C-4.62068966 4.31034483 -4.62068966 4.31034483 -2 3 Z " fill="#683950" transform="translate(47,126)"/>
<path d="M0 0 C0 3.33333333 0 6.66666667 0 10 C-0.99 10.33 -1.98 10.66 -3 11 C-3.66 10.01 -4.32 9.02 -5 8 C-4.0465616 4.53295129 -2.71323406 2.3432476 0 0 Z M-7 9 C-6.34 9 -5.68 9 -5 9 C-5.33 9.66 -5.66 10.32 -6 11 C-6.33 10.34 -6.66 9.68 -7 9 Z " fill="#472344" transform="translate(87,75)"/>
<path d="M0 0 C4.12751449 0.60698743 7.3321148 2.03810791 11 4 C7.62385079 6.25076614 5.93268335 6 2 6 C1.34 4.02 0.68 2.04 0 0 Z " fill="#5A5383" transform="translate(344,31)"/>
<path d="M0 0 C3.625 0.375 3.625 0.375 7 1 C4.22719294 4.08089673 1.93673644 5.68775452 -2 7 C-2.125 4.625 -2.125 4.625 -2 2 C-1.34 1.34 -0.68 0.68 0 0 Z " fill="#634E58" transform="translate(384,441)"/>
<path d="M0 0 C2.64 0.33 5.28 0.66 8 1 C8 1.66 8 2.32 8 3 C9.32 3.66 10.64 4.32 12 5 C11.34 5.66 10.68 6.32 10 7 C2.42857143 4.14285714 2.42857143 4.14285714 0 0 Z " fill="#554045" transform="translate(100,435)"/>
<path d="M0 0 C2.64752004 2.57784846 4.94432065 4.91648098 7 8 C5.35 7.67 3.7 7.34 2 7 C1.67 8.98 1.34 10.96 1 13 C0.67 13 0.34 13 0 13 C0 8.71 0 4.42 0 0 Z " fill="#622E36" transform="translate(232,252)"/>
<path d="M0 0 C0.33 0.99 0.66 1.98 1 3 C1.99 3.33 2.98 3.66 4 4 C-0.455 6.97 -0.455 6.97 -5 10 C-4.01574101 5.07870506 -3.1837982 3.59461087 0 0 Z " fill="#633B53" transform="translate(60,105)"/>
<path d="M0 0 C2.69082872 0.17635452 5.32851446 0.61835921 8 1 C5.53671002 3.46328998 4.52502169 3.3254065 1.125 3.5625 C-2.55486259 3.82664174 -2.55486259 3.82664174 -6.1328125 4.65234375 C-8 5 -8 5 -11 3 C-10.28972656 2.86722656 -9.57945312 2.73445313 -8.84765625 2.59765625 C-7.92855469 2.42105469 -7.00945312 2.24445313 -6.0625 2.0625 C-4.68771484 1.80146484 -4.68771484 1.80146484 -3.28515625 1.53515625 C-1.04710156 1.22285012 -1.04710156 1.22285012 0 0 Z " fill="#8D8D8E" transform="translate(287,483)"/>
<path d="M0 0 C4.875 4.625 4.875 4.625 6 8 C2.7 8 -0.6 8 -4 8 C-4.33 7.34 -4.66 6.68 -5 6 C-2.69 6 -0.38 6 2 6 C2 5.34 2 4.68 2 4 C1.34 4 0.68 4 0 4 C0 2.68 0 1.36 0 0 Z " fill="#E5C9CF" transform="translate(247,258)"/>
<path d="M0 0 C0.12375 0.61875 0.2475 1.2375 0.375 1.875 C0.87197356 4.19120832 0.87197356 4.19120832 3 6 C3 10 3 10 2 12 C0.35 10.02 -1.3 8.04 -3 6 C-1.125 1.125 -1.125 1.125 0 0 Z " fill="#642E37" transform="translate(243,244)"/>
<path d="M0 0 C1.32 0.33 2.64 0.66 4 1 C4.33 2.98 4.66 4.96 5 7 C1.62496331 5.8141763 -0.64722731 4.72426311 -3 2 C-2.34 2 -1.68 2 -1 2 C-0.67 1.34 -0.34 0.68 0 0 Z " fill="#56494D" transform="translate(127,450)"/>
<path d="M0 0 C0.33 0 0.66 0 1 0 C1.48828125 1.98567708 1.9765625 3.97135417 2.46484375 5.95703125 C2.91010705 7.65683202 3.44433985 9.33301954 4 11 C3.67 11.66 3.34 12.32 3 13 C4.98 13 6.96 13 9 13 C9 13.33 9 13.66 9 14 C6.69 14 4.38 14 2 14 C1.46658816 12.42085985 0.94874237 10.83645613 0.4375 9.25 C0.14746094 8.36828125 -0.14257812 7.4865625 -0.44140625 6.578125 C-1.01697435 3.92165684 -0.89248371 2.52968894 0 0 Z " fill="#F0D7D9" transform="translate(179,252)"/>
<path d="M0 0 C1.33998047 0.06960938 1.33998047 0.06960938 2.70703125 0.140625 C3.60808594 0.17671875 4.50914062 0.2128125 5.4375 0.25 C6.46810547 0.31960938 6.46810547 0.31960938 7.51953125 0.390625 C7.51953125 0.720625 7.51953125 1.050625 7.51953125 1.390625 C4.87953125 1.390625 2.23953125 1.390625 -0.48046875 1.390625 C-0.60421875 2.03 -0.72796875 2.669375 -0.85546875 3.328125 C-1.06171875 4.00875 -1.26796875 4.689375 -1.48046875 5.390625 C-2.47046875 5.885625 -2.47046875 5.885625 -3.48046875 6.390625 C-4.14046875 5.730625 -4.80046875 5.070625 -5.48046875 4.390625 C-3.17521711 0.50003419 -3.17521711 0.50003419 0 0 Z " fill="#59131D" transform="translate(224.48046875,265.609375)"/>
<path d="M0 0 C1.23556641 0.01740234 1.23556641 0.01740234 2.49609375 0.03515625 C3.32238281 0.04417969 4.14867187 0.05320313 5 0.0625 C5.63808594 0.07410156 6.27617187 0.08570313 6.93359375 0.09765625 C6.60359375 0.75765625 6.27359375 1.41765625 5.93359375 2.09765625 C3.62359375 2.09765625 1.31359375 2.09765625 -1.06640625 2.09765625 C-1.06640625 3.41765625 -1.06640625 4.73765625 -1.06640625 6.09765625 C-2.71640625 6.09765625 -4.36640625 6.09765625 -6.06640625 6.09765625 C-2.54117689 0.12009343 -2.54117689 0.12009343 0 0 Z " fill="#EAD0D5" transform="translate(245.06640625,231.90234375)"/>
<path d="M0 0 C0.66 0.33 1.32 0.66 2 1 C1.01 2.485 1.01 2.485 0 4 C-0.38499891 5.65549531 -0.72793135 7.3222433 -1 9 C-1.99 9.33 -2.98 9.66 -4 10 C-3.5205537 5.78087253 -2.83374881 3.20336822 0 0 Z " fill="#80455A" transform="translate(27,167)"/>
<path d="M0 0 C-2.90669462 0.85305168 -5.31048873 1.07289715 -8.328125 0.87890625 C-9.12734375 0.83056641 -9.9265625 0.78222656 -10.75 0.73242188 C-11.575 0.67634766 -12.4 0.62027344 -13.25 0.5625 C-14.09046875 0.51029297 -14.9309375 0.45808594 -15.796875 0.40429688 C-17.8649352 0.27504311 -19.9325222 0.13825726 -22 0 C-22 -0.33 -22 -0.66 -22 -1 C-19.0837882 -1.22201613 -16.16792256 -1.42808498 -13.25 -1.625 C-12.425 -1.68945312 -11.6 -1.75390625 -10.75 -1.8203125 C-9.95078125 -1.871875 -9.1515625 -1.9234375 -8.328125 -1.9765625 C-7.5949707 -2.02893066 -6.86181641 -2.08129883 -6.10644531 -2.13525391 C-3.65224559 -1.97767085 -2.11146787 -1.22264839 0 0 Z " fill="#582631" transform="translate(293,232)"/>
<path d="M0 0 C1.23593891 3.70781672 0.5678132 4.67510253 -0.9375 8.1875 C-1.31777344 9.08855469 -1.69804687 9.98960937 -2.08984375 10.91796875 C-2.54037109 11.94857422 -2.54037109 11.94857422 -3 13 C-5 10 -5 10 -5 8 C-4.34 8 -3.68 8 -3 8 C-3 6.35 -3 4.7 -3 3 C-2.34 3 -1.68 3 -1 3 C-0.67 2.01 -0.34 1.02 0 0 Z " fill="#95959C" transform="translate(473,331)"/>
<path d="M0 0 C2.20914 3.31371 2.22481553 4.3446021 2.125 8.1875 C2.10695313 9.08855469 2.08890625 9.98960937 2.0703125 10.91796875 C2.03550781 11.94857422 2.03550781 11.94857422 2 13 C0.48046875 11.82421875 0.48046875 11.82421875 -1 10 C-1.07421875 7.51953125 -1.07421875 7.51953125 -0.6875 4.8125 C-0.56761719 3.91144531 -0.44773437 3.01039063 -0.32421875 2.08203125 C-0.21722656 1.39496094 -0.11023438 0.70789063 0 0 Z " fill="#60718E" transform="translate(482,197)"/>
<path d="M0 0 C0.90550946 3.01150495 1.06723758 5.43770987 0.75 8.5625 C0.68296875 9.32691406 0.6159375 10.09132812 0.546875 10.87890625 C-0.09694852 13.37602176 -1.05228884 14.36120002 -3 16 C-2.52013969 10.43109483 -1.70084819 5.32932432 0 0 Z " fill="#B08491" transform="translate(19,188)"/>
<path d="M0 0 C0.99 0.33 1.98 0.66 3 1 C2.01 2.485 2.01 2.485 1 4 C0.34 4 -0.32 4 -1 4 C-1 4.99 -1 5.98 -1 7 C-1.99 7.33 -2.98 7.66 -4 8 C-2.87548273 5.0280615 -1.77706209 2.66559313 0 0 Z " fill="#815A6E" transform="translate(48,122)"/>
<path d="M0 0 C2.62187494 1.04874998 3.79371361 1.64931313 5.25 4.125 C5.4975 4.74375 5.745 5.3625 6 6 C4.35 6 2.7 6 1 6 C0.67 4.02 0.34 2.04 0 0 Z " fill="#4F4D87" transform="translate(424,88)"/>
<path d="M0 0 C1.98 0.99 1.98 0.99 4 2 C3.67 2.99 3.34 3.98 3 5 C4.32 5.33 5.64 5.66 7 6 C6.01 7.32 5.02 8.64 4 10 C3.32845067 8.71086513 2.66291141 7.41859796 2 6.125 C1.62875 5.40570313 1.2575 4.68640625 0.875 3.9453125 C0 2 0 2 0 0 Z " fill="#986972" transform="translate(36,355)"/>
<path d="M0 0 C1.65 0 3.3 0 5 0 C4 3 4 3 2 5 C2 5.33 2 5.66 2 6 C-0.31 6 -2.62 6 -5 6 C-4.360625 5.7525 -3.72125 5.505 -3.0625 5.25 C-0.81258459 4.18437567 -0.81258459 4.18437567 -0.25 1.875 C-0.1675 1.25625 -0.085 0.6375 0 0 Z " fill="#FBF3F7" transform="translate(320,233)"/>
<path d="M0 0 C2 1 4 2 6 3 C5.67 3.99 5.34 4.98 5 6 C4.01 6.33 3.02 6.66 2 7 C1.34 4.69 0.68 2.38 0 0 Z " fill="#50021F" transform="translate(26,170)"/>
<path d="M0 0 C0.99 0.495 0.99 0.495 2 1 C2 1.66 2 2.32 2 3 C2.66 3.33 3.32 3.66 4 4 C4.99 5.485 4.99 5.485 6 7 C5.34 7.66 4.68 8.32 4 9 C1.47740939 7.02579865 1.0070192 6.03254358 0.3125 2.8125 C0.209375 1.884375 0.10625 0.95625 0 0 Z " fill="#3C040D" transform="translate(62,391)"/>
<path d="M0 0 C0.33 0 0.66 0 1 0 C0.88648483 1.81325551 0.75887039 3.62563357 0.625 5.4375 C0.55539062 6.44683594 0.48578125 7.45617187 0.4140625 8.49609375 C0.27742188 9.32238281 0.14078125 10.14867187 0 11 C-0.99 11.495 -0.99 11.495 -2 12 C-2.28571429 3.42857143 -2.28571429 3.42857143 0 0 Z " fill="#8C93A0" transform="translate(485,283)"/>
<path d="M0 0 C0.66 0 1.32 0 2 0 C1.34 1.98 0.68 3.96 0 6 C-0.66 6 -1.32 6 -2 6 C-2 5.34 -2 4.68 -2 4 C-2.66 4 -3.32 4 -4 4 C-4.33 4.66 -4.66 5.32 -5 6 C-5 5.01 -5 4.02 -5 3 C-4.34 3 -3.68 3 -3 3 C-2.67 2.34 -2.34 1.68 -2 1 C-1.34 1.33 -0.68 1.66 0 2 C0 1.34 0 0.68 0 0 Z " fill="#5E2C3A" transform="translate(302,238)"/>
<path d="M0 0 C0.99 0.33 1.98 0.66 3 1 C4.1875 4.0625 4.1875 4.0625 5 7 C3.02 6.34 1.04 5.68 -1 5 C-0.67 3.35 -0.34 1.7 0 0 Z " fill="#4F628D" transform="translate(457,134)"/>
<path d="M0 0 C1.65 1.65 3.3 3.3 5 5 C4.67 5.66 4.34 6.32 4 7 C3.34 6.67 2.68 6.34 2 6 C1.67 6.66 1.34 7.32 1 8 C0.02391783 5.07175348 -0.08226668 3.04386724 0 0 Z " fill="#495183" transform="translate(441,108)"/>
<path d="M0 0 C0.66 0.33 1.32 0.66 2 1 C0.35 2.65 -1.3 4.3 -3 6 C-4.32 5.34 -5.64 4.68 -7 4 C-1.7265625 0.77734375 -1.7265625 0.77734375 0 0 Z " fill="#6C5C7C" transform="translate(141,37)"/>
<path d="M0 0 C0.93065133 2.60582371 1.14917407 3.64198224 0.0625 6.25 C-0.4634375 7.11625 -0.4634375 7.11625 -1 8 C-4 3.25 -4 3.25 -4 1 C-2 0 -2 0 0 0 Z " fill="#592D39" transform="translate(294,251)"/>
<path d="M0 0 C0.66 0.66 1.32 1.32 2 2 C1.67 2.66 1.34 3.32 1 4 C0.77532169 5.53668865 0.59203195 7.07968054 0.4375 8.625 C0.35371094 9.44226563 0.26992188 10.25953125 0.18359375 11.1015625 C0.12300781 11.72804687 0.06242187 12.35453125 0 13 C-0.33 13 -0.66 13 -1 13 C-2 5.375 -2 5.375 -2 2 C-1.34 2 -0.68 2 0 2 C0 1.34 0 0.68 0 0 Z " fill="#D9CACF" transform="translate(310,240)"/>
<path d="M0 0 C1 2 1 2 0.9375 3.9375 C-0.49252493 7.08355485 -2.92626518 7.69202774 -6 9 C-4.47291037 5.56404834 -2.40072955 2.88087546 0 0 Z " fill="#86677C" transform="translate(67,96)"/>
<path d="M0 0 C2.64 0 5.28 0 8 0 C7.67 1.98 7.34 3.96 7 6 C5.83054208 5.19152271 4.66449539 4.37810888 3.5 3.5625 C2.8503125 3.11003906 2.200625 2.65757812 1.53125 2.19140625 C1.0259375 1.79824219 0.520625 1.40507812 0 1 C0 0.67 0 0.34 0 0 Z " fill="#6B4F55" transform="translate(89,426)"/>
<path d="M0 0 C1.65 0 3.3 0 5 0 C3.35 1.98 1.7 3.96 0 6 C-0.66 5.67 -1.32 5.34 -2 5 C-1.34 3.35 -0.68 1.7 0 0 Z " fill="#95898E" transform="translate(411,421)"/>
<path d="M0 0 C0.33 0 0.66 0 1 0 C1 2.31 1 4.62 1 7 C-0.98 7.99 -0.98 7.99 -3 9 C-2.01 6.03 -1.02 3.06 0 0 Z " fill="#682F36" transform="translate(194,249)"/>
<path d="M0 0 C0.66 0.99 1.32 1.98 2 3 C1.375 5.625 1.375 5.625 0 8 C-1.32 8.33 -2.64 8.66 -4 9 C-2.68 6.03 -1.36 3.06 0 0 Z " fill="#E7D0D2" transform="translate(188,246)"/>
<path d="M0 0 C2.4375 0.625 2.4375 0.625 5 2 C5.8125 5.125 5.8125 5.125 6 8 C1.125 3.375 1.125 3.375 0 0 Z " fill="#7F585F" transform="translate(58,391)"/>
<path d="M0 0 C0.99 0 1.98 0 3 0 C3.73080266 1.97746603 4.39421747 3.98072489 5 6 C4.67 6.66 4.34 7.32 4 8 C0 2.25 0 2.25 0 0 Z " fill="#80535A" transform="translate(45,371)"/>
<path d="M0 0 C0.99 0.495 0.99 0.495 2 1 C2.625 4.0625 2.625 4.0625 3 7 C2.01 7.33 1.02 7.66 0 8 C0 5.36 0 2.72 0 0 Z " fill="#6E3840" transform="translate(174,248)"/>
<path d="M0 0 C1 3 1 3 0.3125 5.125 C-1 7 -1 7 -3.125 7.75 C-4.053125 7.87375 -4.053125 7.87375 -5 8 C-1.125 1.125 -1.125 1.125 0 0 Z " fill="#ECD3D7" transform="translate(238,238)"/>
<path d="M0 0 C0.99 0.33 1.98 0.66 3 1 C0.525 4.465 0.525 4.465 -2 8 C-2.66 7.34 -3.32 6.68 -4 6 C-3.34 6 -2.68 6 -2 6 C-1.7834375 5.071875 -1.7834375 5.071875 -1.5625 4.125 C-1 2 -1 2 0 0 Z " fill="#F4DFE3" transform="translate(246,236)"/>
<path d="M0 0 C0.33 0 0.66 0 1 0 C1 2.64 1 5.28 1 8 C0.34 8 -0.32 8 -1 8 C-1.33 8.66 -1.66 9.32 -2 10 C-1.125 2.25 -1.125 2.25 0 0 Z " fill="#966978" transform="translate(22,178)"/>
<path d="M0 0 C1.98 0.99 1.98 0.99 4 2 C3.34 3.98 2.68 5.96 2 8 C1.34 8 0.68 8 0 8 C0.50603992 5.83125748 0.99983813 4.00032373 2 2 C1.34 2 0.68 2 0 2 C0 1.34 0 0.68 0 0 Z " fill="#383173" transform="translate(395,61)"/>
<path d="M0 0 C-0.375 1.9375 -0.375 1.9375 -1 4 C-1.99 4.495 -1.99 4.495 -3 5 C-3.99 4.34 -4.98 3.68 -6 3 C-3.375 0 -3.375 0 0 0 Z " fill="#59415C" transform="translate(106,61)"/>
<path d="M0 0 C1.98 0.66 3.96 1.32 6 2 C6 2.33 6 2.66 6 3 C4.35 3 2.7 3 1 3 C1 3.66 1 4.32 1 5 C0.34 5 -0.32 5 -1 5 C-0.67 3.35 -0.34 1.7 0 0 Z " fill="#2F256A" transform="translate(385,55)"/>
<path d="M0 0 C7.75 0.75 7.75 0.75 10 3 C6.98968256 3.93423645 6.13349732 4.04449911 3 3 C3 2.34 3 1.68 3 1 C2.01 0.67 1.02 0.34 0 0 Z " fill="#817BA0" transform="translate(312,20)"/>
<path d="M0 0 C1.98 0.495 1.98 0.495 4 1 C3.67 1.66 3.34 2.32 3 3 C3.33 3.99 3.66 4.98 4 6 C2.35 5.67 0.7 5.34 -1 5 C-0.67 3.35 -0.34 1.7 0 0 Z " fill="#0C030A" transform="translate(145,458)"/>
<path d="M0 0 C0 0.99 0 1.98 0 3 C-2.5 5.1875 -2.5 5.1875 -5 7 C-5.33 6.01 -5.66 5.02 -6 4 C-5.34 4 -4.68 4 -4 4 C-4 3.34 -4 2.68 -4 2 C-2.68 1.34 -1.36 0.68 0 0 Z " fill="#9C9297" transform="translate(425,410)"/>
<path d="M0 0 C0 0.99 0 1.98 0 3 C-2.3125 3.6875 -2.3125 3.6875 -5 4 C-6.8125 2.5625 -6.8125 2.5625 -8 1 C-5.36 0.67 -2.72 0.34 0 0 Z " fill="#E3CED4" transform="translate(287,246)"/>
<path d="M0 0 C0.99 0.33 1.98 0.66 3 1 C3 1.66 3 2.32 3 3 C2.34 3 1.68 3 1 3 C0.34 4.32 -0.32 5.64 -1 7 C-1.33 5.68 -1.66 4.36 -2 3 C-1.34 3 -0.68 3 0 3 C0 2.01 0 1.02 0 0 Z " fill="#4B0B25" transform="translate(34,150)"/>
</svg>
